G04 #@! TF.GenerationSoftware,KiCad,Pcbnew,(5.0.0)*
G04 #@! TF.CreationDate,2018-08-19T14:30:57-03:00*
G04 #@! TF.ProjectId,franzininho-tiny841,6672616E7A696E696E686F2D74696E79,rev?*
G04 #@! TF.SameCoordinates,Original*
G04 #@! TF.FileFunction,Copper,L1,Top,Signal*
G04 #@! TF.FilePolarity,Positive*
%FSLAX46Y46*%
G04 Gerber Fmt 4.6, Leading zero omitted, Abs format (unit mm)*
G04 Created by KiCad (PCBNEW (5.0.0)) date 08/19/18 14:30:57*
%MOMM*%
%LPD*%
G01*
G04 APERTURE LIST*
G04 #@! TA.AperFunction,SMDPad,CuDef*
%ADD10R,1.250000X1.500000*%
G04 #@! TD*
G04 #@! TA.AperFunction,SMDPad,CuDef*
%ADD11R,1.000000X1.000000*%
G04 #@! TD*
G04 #@! TA.AperFunction,SMDPad,CuDef*
%ADD12R,1.100000X1.100000*%
G04 #@! TD*
G04 #@! TA.AperFunction,SMDPad,CuDef*
%ADD13R,1.200000X0.900000*%
G04 #@! TD*
G04 #@! TA.AperFunction,SMDPad,CuDef*
%ADD14R,0.900000X1.200000*%
G04 #@! TD*
G04 #@! TA.AperFunction,SMDPad,CuDef*
%ADD15R,0.650000X1.560000*%
G04 #@! TD*
G04 #@! TA.AperFunction,SMDPad,CuDef*
%ADD16R,0.508000X1.143000*%
G04 #@! TD*
G04 #@! TA.AperFunction,SMDPad,CuDef*
%ADD17R,1.900000X1.500000*%
G04 #@! TD*
G04 #@! TA.AperFunction,ComponentPad*
%ADD18C,1.450000*%
G04 #@! TD*
G04 #@! TA.AperFunction,SMDPad,CuDef*
%ADD19R,1.350000X0.400000*%
G04 #@! TD*
G04 #@! TA.AperFunction,ComponentPad*
%ADD20O,1.900000X1.200000*%
G04 #@! TD*
G04 #@! TA.AperFunction,SMDPad,CuDef*
%ADD21R,1.900000X1.200000*%
G04 #@! TD*
G04 #@! TA.AperFunction,SMDPad,CuDef*
%ADD22R,1.700000X0.900000*%
G04 #@! TD*
G04 #@! TA.AperFunction,ComponentPad*
%ADD23C,1.960000*%
G04 #@! TD*
G04 #@! TA.AperFunction,ViaPad*
%ADD24C,0.800000*%
G04 #@! TD*
G04 #@! TA.AperFunction,Conductor*
%ADD25C,0.381000*%
G04 #@! TD*
G04 #@! TA.AperFunction,Conductor*
%ADD26C,0.254000*%
G04 #@! TD*
G04 #@! TA.AperFunction,Conductor*
%ADD27C,0.200000*%
G04 #@! TD*
G04 APERTURE END LIST*
D10*
G04 #@! TO.P,C1,2*
G04 #@! TO.N,GNDREF*
X182054500Y-106914000D03*
G04 #@! TO.P,C1,1*
G04 #@! TO.N,+BATT*
X182054500Y-104414000D03*
G04 #@! TD*
G04 #@! TO.P,C2,1*
G04 #@! TO.N,+5V*
X193103500Y-114831500D03*
G04 #@! TO.P,C2,2*
G04 #@! TO.N,GNDREF*
X193103500Y-112331500D03*
G04 #@! TD*
D11*
G04 #@! TO.P,D1,2*
G04 #@! TO.N,GNDREF*
X189992000Y-117983000D03*
G04 #@! TO.P,D1,1*
G04 #@! TO.N,Net-(D1-Pad1)*
X187492000Y-117983000D03*
G04 #@! TD*
G04 #@! TO.P,D2,1*
G04 #@! TO.N,Net-(D2-Pad1)*
X187492000Y-111379000D03*
G04 #@! TO.P,D2,2*
G04 #@! TO.N,GNDREF*
X189992000Y-111379000D03*
G04 #@! TD*
D12*
G04 #@! TO.P,D3,2*
G04 #@! TO.N,VBUS*
X187706000Y-109093000D03*
G04 #@! TO.P,D3,1*
G04 #@! TO.N,+5V*
X190506000Y-109093000D03*
G04 #@! TD*
D13*
G04 #@! TO.P,R1,1*
G04 #@! TO.N,Net-(D2-Pad1)*
X187665000Y-113157000D03*
G04 #@! TO.P,R1,2*
G04 #@! TO.N,+5V*
X189865000Y-113157000D03*
G04 #@! TD*
G04 #@! TO.P,R2,1*
G04 #@! TO.N,PB0*
X189865000Y-116205000D03*
G04 #@! TO.P,R2,2*
G04 #@! TO.N,Net-(D1-Pad1)*
X187665000Y-116205000D03*
G04 #@! TD*
G04 #@! TO.P,R3,2*
G04 #@! TO.N,Net-(D2-Pad1)*
X187665000Y-114681000D03*
G04 #@! TO.P,R3,1*
G04 #@! TO.N,PB1*
X189865000Y-114681000D03*
G04 #@! TD*
D14*
G04 #@! TO.P,R4,2*
G04 #@! TO.N,+5V*
X205740000Y-112458500D03*
G04 #@! TO.P,R4,1*
G04 #@! TO.N,Net-(D4-Pad2)*
X205740000Y-110258500D03*
G04 #@! TD*
G04 #@! TO.P,R5,2*
G04 #@! TO.N,+5V*
X205740000Y-116860500D03*
G04 #@! TO.P,R5,1*
G04 #@! TO.N,Net-(D5-Pad2)*
X205740000Y-114660500D03*
G04 #@! TD*
G04 #@! TO.P,R6,2*
G04 #@! TO.N,PB3*
X185674000Y-121920000D03*
G04 #@! TO.P,R6,1*
G04 #@! TO.N,+5V*
X185674000Y-119720000D03*
G04 #@! TD*
D15*
G04 #@! TO.P,U1,5*
G04 #@! TO.N,+5V*
X185928000Y-107442000D03*
G04 #@! TO.P,U1,4*
G04 #@! TO.N,Net-(U1-Pad4)*
X184028000Y-107442000D03*
G04 #@! TO.P,U1,3*
G04 #@! TO.N,+BATT*
X184028000Y-104742000D03*
G04 #@! TO.P,U1,2*
G04 #@! TO.N,GNDREF*
X184978000Y-104742000D03*
G04 #@! TO.P,U1,1*
G04 #@! TO.N,+BATT*
X185928000Y-104742000D03*
G04 #@! TD*
D16*
G04 #@! TO.P,U2,10*
G04 #@! TO.N,PA3*
X200787000Y-110490000D03*
G04 #@! TO.P,U2,14*
G04 #@! TO.N,GNDREF*
X195707000Y-110490000D03*
G04 #@! TO.P,U2,13*
G04 #@! TO.N,PA0*
X196977000Y-110490000D03*
G04 #@! TO.P,U2,12*
G04 #@! TO.N,PA1*
X198247000Y-110490000D03*
G04 #@! TO.P,U2,11*
G04 #@! TO.N,PA2*
X199517000Y-110490000D03*
G04 #@! TO.P,U2,9*
G04 #@! TO.N,PA4*
X202057000Y-110490000D03*
G04 #@! TO.P,U2,8*
G04 #@! TO.N,PA5*
X203327000Y-110490000D03*
G04 #@! TO.P,U2,7*
G04 #@! TO.N,PA6*
X203327000Y-116840000D03*
G04 #@! TO.P,U2,6*
G04 #@! TO.N,PA7*
X202057000Y-116840000D03*
G04 #@! TO.P,U2,5*
G04 #@! TO.N,PB2*
X200787000Y-116840000D03*
G04 #@! TO.P,U2,4*
G04 #@! TO.N,PB3*
X199517000Y-116840000D03*
G04 #@! TO.P,U2,3*
G04 #@! TO.N,PB1*
X198247000Y-116840000D03*
G04 #@! TO.P,U2,2*
G04 #@! TO.N,PB0*
X196977000Y-116840000D03*
G04 #@! TO.P,U2,1*
G04 #@! TO.N,+5V*
X195707000Y-116840000D03*
G04 #@! TD*
D17*
G04 #@! TO.P,J1,6*
G04 #@! TO.N,GNDREF*
X181769500Y-114030000D03*
D18*
X184469500Y-110530000D03*
D19*
G04 #@! TO.P,J1,2*
G04 #@! TO.N,Net-(D2-Pad1)*
X184469500Y-112380000D03*
G04 #@! TO.P,J1,1*
G04 #@! TO.N,VBUS*
X184469500Y-111730000D03*
G04 #@! TO.P,J1,5*
G04 #@! TO.N,GNDREF*
X184469500Y-114330000D03*
G04 #@! TO.P,J1,4*
G04 #@! TO.N,Net-(J1-Pad4)*
X184469500Y-113680000D03*
G04 #@! TO.P,J1,3*
G04 #@! TO.N,Net-(D1-Pad1)*
X184469500Y-113030000D03*
D18*
G04 #@! TO.P,J1,6*
G04 #@! TO.N,GNDREF*
X184469500Y-115530000D03*
D17*
X181769500Y-112030000D03*
D20*
X181769500Y-109530000D03*
X181769500Y-116530000D03*
D21*
X181769500Y-115930000D03*
X181769500Y-110130000D03*
G04 #@! TD*
D22*
G04 #@! TO.P,SW1,1*
G04 #@! TO.N,GNDREF*
X183134000Y-118950000D03*
G04 #@! TO.P,SW1,2*
G04 #@! TO.N,PB3*
X183134000Y-122350000D03*
G04 #@! TD*
D14*
G04 #@! TO.P,D4,1*
G04 #@! TO.N,GNDREF*
X207391000Y-112458500D03*
G04 #@! TO.P,D4,2*
G04 #@! TO.N,Net-(D4-Pad2)*
X207391000Y-110258500D03*
G04 #@! TD*
G04 #@! TO.P,D5,2*
G04 #@! TO.N,Net-(D5-Pad2)*
X207391000Y-114617500D03*
G04 #@! TO.P,D5,1*
G04 #@! TO.N,PB2*
X207391000Y-116817500D03*
G04 #@! TD*
D23*
G04 #@! TO.P,J2,8*
G04 #@! TO.N,PA5*
X208280000Y-104140000D03*
G04 #@! TO.P,J2,7*
G04 #@! TO.N,PA4*
X205740000Y-104140000D03*
G04 #@! TO.P,J2,6*
G04 #@! TO.N,PA3*
X203200000Y-104140000D03*
G04 #@! TO.P,J2,5*
G04 #@! TO.N,PA2*
X200660000Y-104140000D03*
G04 #@! TO.P,J2,4*
G04 #@! TO.N,PA1*
X198120000Y-104140000D03*
G04 #@! TO.P,J2,3*
G04 #@! TO.N,PA0*
X195580000Y-104140000D03*
G04 #@! TO.P,J2,2*
G04 #@! TO.N,GNDREF*
X193040000Y-104140000D03*
G04 #@! TO.P,J2,1*
G04 #@! TO.N,+BATT*
X190500000Y-104140000D03*
G04 #@! TD*
G04 #@! TO.P,J3,1*
G04 #@! TO.N,+5V*
X190500000Y-121920000D03*
G04 #@! TO.P,J3,2*
G04 #@! TO.N,GNDREF*
X193040000Y-121920000D03*
G04 #@! TO.P,J3,3*
G04 #@! TO.N,PB0*
X195580000Y-121920000D03*
G04 #@! TO.P,J3,4*
G04 #@! TO.N,PB1*
X198120000Y-121920000D03*
G04 #@! TO.P,J3,5*
G04 #@! TO.N,PB3*
X200660000Y-121920000D03*
G04 #@! TO.P,J3,6*
G04 #@! TO.N,PB2*
X203200000Y-121920000D03*
G04 #@! TO.P,J3,7*
G04 #@! TO.N,PA7*
X205740000Y-121920000D03*
G04 #@! TO.P,J3,8*
G04 #@! TO.N,PA6*
X208280000Y-121920000D03*
G04 #@! TD*
D24*
G04 #@! TO.N,+5V*
X185166000Y-118110000D03*
X191579500Y-113890500D03*
X189178000Y-107094000D03*
G04 #@! TO.N,PB3*
X187325000Y-122047000D03*
G04 #@! TO.N,PB1*
X192659000Y-117030500D03*
X198120000Y-118999000D03*
G04 #@! TD*
D25*
G04 #@! TO.N,GNDREF*
X184469500Y-114330000D02*
X184469500Y-115530000D01*
G04 #@! TO.N,+BATT*
X182074500Y-104394000D02*
X182054500Y-104414000D01*
X190500000Y-104140000D02*
X187452000Y-104140000D01*
X186850000Y-104742000D02*
X185928000Y-104742000D01*
X187452000Y-104140000D02*
X186850000Y-104742000D01*
X185928000Y-103581000D02*
X185725000Y-103378000D01*
X185928000Y-104742000D02*
X185928000Y-103581000D01*
X184028000Y-103581000D02*
X184028000Y-104742000D01*
X184231000Y-103378000D02*
X184028000Y-103581000D01*
X185725000Y-103378000D02*
X184231000Y-103378000D01*
X183700000Y-104414000D02*
X184028000Y-104742000D01*
X182054500Y-104414000D02*
X183700000Y-104414000D01*
D26*
G04 #@! TO.N,+5V*
X189865000Y-113157000D02*
X190015000Y-113157000D01*
X190015000Y-113157000D02*
X190078500Y-113220500D01*
D25*
X190846000Y-113157000D02*
X189865000Y-113157000D01*
X192097500Y-114831500D02*
X191579500Y-114313500D01*
X193103500Y-114831500D02*
X192097500Y-114831500D01*
X191579500Y-113890500D02*
X190846000Y-113157000D01*
X191579500Y-114313500D02*
X191579500Y-113890500D01*
X193698500Y-114831500D02*
X195707000Y-116840000D01*
X193103500Y-114831500D02*
X193698500Y-114831500D01*
D26*
X205036000Y-112458500D02*
X204406500Y-113088000D01*
X205740000Y-112458500D02*
X205036000Y-112458500D01*
X205740000Y-116710500D02*
X205740000Y-116860500D01*
X204406500Y-115377000D02*
X205740000Y-116710500D01*
X204406500Y-113088000D02*
X204406500Y-115377000D01*
X204406500Y-115377000D02*
X204404000Y-115377000D01*
X204404000Y-115377000D02*
X203771500Y-114744500D01*
X203771500Y-114744500D02*
X196469000Y-114744500D01*
X195707000Y-115506500D02*
X195707000Y-116840000D01*
X196469000Y-114744500D02*
X195707000Y-115506500D01*
D25*
X190373000Y-108289000D02*
X190373000Y-109220000D01*
X189178000Y-107094000D02*
X190373000Y-108289000D01*
X186505000Y-119761000D02*
X185674000Y-119761000D01*
X189572000Y-119761000D02*
X186505000Y-119761000D01*
X190500000Y-120689000D02*
X189572000Y-119761000D01*
X190500000Y-121920000D02*
X190500000Y-120689000D01*
X185674000Y-118780000D02*
X185166000Y-118272000D01*
X185674000Y-119761000D02*
X185674000Y-118780000D01*
X185166000Y-118272000D02*
X185166000Y-118110000D01*
X186276000Y-107094000D02*
X185928000Y-107442000D01*
X189178000Y-107094000D02*
X186276000Y-107094000D01*
D26*
G04 #@! TO.N,Net-(D1-Pad1)*
X185398500Y-113030000D02*
X186499500Y-114131000D01*
X184469500Y-113030000D02*
X185398500Y-113030000D01*
X187515000Y-116205000D02*
X187665000Y-116205000D01*
X186499500Y-115189500D02*
X187515000Y-116205000D01*
X186499500Y-114131000D02*
X186499500Y-115189500D01*
X187665000Y-117810000D02*
X187492000Y-117983000D01*
X187665000Y-116205000D02*
X187665000Y-117810000D01*
G04 #@! TO.N,Net-(D2-Pad1)*
X185398500Y-112380000D02*
X184469500Y-112380000D01*
X185737000Y-112380000D02*
X185398500Y-112380000D01*
X186738000Y-111379000D02*
X185737000Y-112380000D01*
X187492000Y-111379000D02*
X186738000Y-111379000D01*
X187492000Y-112984000D02*
X187665000Y-113157000D01*
X187492000Y-111379000D02*
X187492000Y-112984000D01*
X187665000Y-113157000D02*
X187665000Y-114681000D01*
G04 #@! TO.N,VBUS*
X185398500Y-111730000D02*
X186055000Y-111073500D01*
X184469500Y-111730000D02*
X185398500Y-111730000D01*
X186055000Y-111073500D02*
X186055000Y-109791500D01*
X186626500Y-109220000D02*
X187573000Y-109220000D01*
X186055000Y-109791500D02*
X186626500Y-109220000D01*
G04 #@! TO.N,Net-(D4-Pad2)*
X205740000Y-110258500D02*
X207391000Y-110258500D01*
G04 #@! TO.N,Net-(D5-Pad2)*
X207348000Y-114660500D02*
X207391000Y-114617500D01*
X205740000Y-114660500D02*
X207348000Y-114660500D01*
G04 #@! TO.N,PA0*
X196977000Y-109664500D02*
X196977000Y-110490000D01*
X196977000Y-106739081D02*
X196977000Y-109664500D01*
X195580000Y-105342081D02*
X196977000Y-106739081D01*
X195580000Y-104140000D02*
X195580000Y-105342081D01*
G04 #@! TO.N,PA1*
X198120000Y-104140000D02*
X198120000Y-108648500D01*
X198247000Y-108775500D02*
X198247000Y-110490000D01*
X198120000Y-108648500D02*
X198247000Y-108775500D01*
G04 #@! TO.N,PA2*
X200660000Y-104140000D02*
X200660000Y-105981500D01*
X199517000Y-107124500D02*
X199517000Y-110490000D01*
X200660000Y-105981500D02*
X199517000Y-107124500D01*
G04 #@! TO.N,PA3*
X203200000Y-104140000D02*
X203200000Y-105473500D01*
X200787000Y-107886500D02*
X200787000Y-110490000D01*
X203200000Y-105473500D02*
X200787000Y-107886500D01*
G04 #@! TO.N,PA4*
X202057000Y-109664500D02*
X202057000Y-110490000D01*
X202057000Y-109025081D02*
X202057000Y-109664500D01*
X205740000Y-105342081D02*
X202057000Y-109025081D01*
X205740000Y-104140000D02*
X205740000Y-105342081D01*
G04 #@! TO.N,PA5*
X208280000Y-104140000D02*
X208280000Y-105664000D01*
X208280000Y-105664000D02*
X206248000Y-107696000D01*
X206248000Y-107696000D02*
X204660500Y-107696000D01*
X203327000Y-109029500D02*
X203327000Y-110490000D01*
X204660500Y-107696000D02*
X203327000Y-109029500D01*
G04 #@! TO.N,PB0*
X195580000Y-121920000D02*
X196977000Y-120523000D01*
X190719000Y-116205000D02*
X191770000Y-117256000D01*
X189865000Y-116205000D02*
X190719000Y-116205000D01*
X191770000Y-117256000D02*
X191770000Y-117602000D01*
X191770000Y-117602000D02*
X192532000Y-118364000D01*
X196215000Y-118364000D02*
X196977000Y-117602000D01*
X192532000Y-118364000D02*
X196215000Y-118364000D01*
X196977000Y-120523000D02*
X196977000Y-117602000D01*
X196977000Y-117602000D02*
X196977000Y-116840000D01*
G04 #@! TO.N,PB3*
X199517000Y-117665500D02*
X199517000Y-116840000D01*
X199517000Y-119574919D02*
X199517000Y-117665500D01*
X200660000Y-120717919D02*
X199517000Y-119574919D01*
X200660000Y-121920000D02*
X200660000Y-120717919D01*
X185285000Y-122350000D02*
X185674000Y-121961000D01*
X182880000Y-122350000D02*
X185285000Y-122350000D01*
X185760000Y-122047000D02*
X185674000Y-121961000D01*
X187325000Y-122047000D02*
X185760000Y-122047000D01*
G04 #@! TO.N,PA6*
X203327000Y-117665500D02*
X204978000Y-119316500D01*
X203327000Y-116840000D02*
X203327000Y-117665500D01*
X204978000Y-119316500D02*
X207073500Y-119316500D01*
X208280000Y-120523000D02*
X208280000Y-121920000D01*
X207073500Y-119316500D02*
X208280000Y-120523000D01*
G04 #@! TO.N,PA7*
X202057000Y-118237000D02*
X205740000Y-121920000D01*
X202057000Y-116840000D02*
X202057000Y-118237000D01*
G04 #@! TO.N,PB2*
X203200000Y-121920000D02*
X203200000Y-120205500D01*
X200787000Y-117792500D02*
X200787000Y-116840000D01*
X203200000Y-120205500D02*
X200787000Y-117792500D01*
X207391000Y-117729000D02*
X207391000Y-116817500D01*
X204978000Y-118110000D02*
X207010000Y-118110000D01*
X207010000Y-118110000D02*
X207391000Y-117729000D01*
X200787000Y-115760500D02*
X201041000Y-115506500D01*
X200787000Y-116840000D02*
X200787000Y-115760500D01*
X201041000Y-115506500D02*
X203771500Y-115506500D01*
X203771500Y-115506500D02*
X204279500Y-116014500D01*
X204279500Y-116014500D02*
X204279500Y-117411500D01*
X204279500Y-117411500D02*
X204978000Y-118110000D01*
G04 #@! TO.N,PB1*
X198120000Y-121920000D02*
X198120000Y-118999000D01*
X198247000Y-118872000D02*
X198247000Y-116840000D01*
X198120000Y-118999000D02*
X198247000Y-118872000D01*
X190719000Y-114681000D02*
X191643000Y-115605000D01*
X189865000Y-114681000D02*
X190719000Y-114681000D01*
X191643000Y-115605000D02*
X191643000Y-116078000D01*
X191643000Y-116078000D02*
X192595500Y-117030500D01*
X192595500Y-117030500D02*
X192659000Y-117030500D01*
G04 #@! TD*
D27*
G04 #@! TO.N,GNDREF*
G36*
X193195564Y-104125858D02*
X193181421Y-104140000D01*
X194086785Y-105045364D01*
X194312023Y-104946258D01*
X194325317Y-104978353D01*
X194741647Y-105394683D01*
X194969995Y-105489268D01*
X194989380Y-105586723D01*
X195091878Y-105740121D01*
X195127960Y-105794122D01*
X195180307Y-105829099D01*
X196350000Y-106998793D01*
X196350001Y-109576756D01*
X196340533Y-109590926D01*
X196244227Y-109494620D01*
X196060456Y-109418500D01*
X195932000Y-109418500D01*
X195807000Y-109543500D01*
X195807000Y-110390000D01*
X195827000Y-110390000D01*
X195827000Y-110590000D01*
X195807000Y-110590000D01*
X195807000Y-111436500D01*
X195932000Y-111561500D01*
X196060456Y-111561500D01*
X196244227Y-111485380D01*
X196340533Y-111389074D01*
X196362520Y-111421980D01*
X196527910Y-111532489D01*
X196723000Y-111571295D01*
X197231000Y-111571295D01*
X197426090Y-111532489D01*
X197591480Y-111421980D01*
X197612000Y-111391269D01*
X197632520Y-111421980D01*
X197797910Y-111532489D01*
X197993000Y-111571295D01*
X198501000Y-111571295D01*
X198696090Y-111532489D01*
X198861480Y-111421980D01*
X198882000Y-111391269D01*
X198902520Y-111421980D01*
X199067910Y-111532489D01*
X199263000Y-111571295D01*
X199771000Y-111571295D01*
X199966090Y-111532489D01*
X200131480Y-111421980D01*
X200152000Y-111391269D01*
X200172520Y-111421980D01*
X200337910Y-111532489D01*
X200533000Y-111571295D01*
X201041000Y-111571295D01*
X201236090Y-111532489D01*
X201401480Y-111421980D01*
X201422000Y-111391269D01*
X201442520Y-111421980D01*
X201607910Y-111532489D01*
X201803000Y-111571295D01*
X202311000Y-111571295D01*
X202506090Y-111532489D01*
X202671480Y-111421980D01*
X202692000Y-111391269D01*
X202712520Y-111421980D01*
X202877910Y-111532489D01*
X203073000Y-111571295D01*
X203581000Y-111571295D01*
X203776090Y-111532489D01*
X203941480Y-111421980D01*
X204051989Y-111256590D01*
X204090795Y-111061500D01*
X204090795Y-109918500D01*
X204051989Y-109723410D01*
X203954000Y-109576758D01*
X203954000Y-109289211D01*
X204920211Y-108323000D01*
X206186254Y-108323000D01*
X206248000Y-108335282D01*
X206309746Y-108323000D01*
X206309750Y-108323000D01*
X206492643Y-108286620D01*
X206700041Y-108148041D01*
X206735020Y-108095691D01*
X208679693Y-106151019D01*
X208732041Y-106116041D01*
X208780679Y-106043250D01*
X208870620Y-105908643D01*
X208876164Y-105880773D01*
X208907000Y-105725750D01*
X208907000Y-105725746D01*
X208919282Y-105664000D01*
X208907000Y-105602254D01*
X208907000Y-105482228D01*
X209118353Y-105394683D01*
X209450000Y-105063036D01*
X209450000Y-120996964D01*
X209118353Y-120665317D01*
X208908282Y-120578303D01*
X208919282Y-120523000D01*
X208907000Y-120461254D01*
X208907000Y-120461250D01*
X208870620Y-120278357D01*
X208857567Y-120258822D01*
X208767020Y-120123308D01*
X208767019Y-120123307D01*
X208732041Y-120070959D01*
X208679693Y-120035981D01*
X207560520Y-118916809D01*
X207525541Y-118864459D01*
X207318143Y-118725880D01*
X207222898Y-118706934D01*
X207254643Y-118700620D01*
X207462041Y-118562041D01*
X207497021Y-118509690D01*
X207790691Y-118216020D01*
X207843041Y-118181041D01*
X207981620Y-117973643D01*
X207997012Y-117896262D01*
X208036090Y-117888489D01*
X208201480Y-117777980D01*
X208311989Y-117612590D01*
X208350795Y-117417500D01*
X208350795Y-116217500D01*
X208311989Y-116022410D01*
X208201480Y-115857020D01*
X208036090Y-115746511D01*
X207890243Y-115717500D01*
X208036090Y-115688489D01*
X208201480Y-115577980D01*
X208311989Y-115412590D01*
X208350795Y-115217500D01*
X208350795Y-114017500D01*
X208311989Y-113822410D01*
X208201480Y-113657020D01*
X208036090Y-113546511D01*
X207991036Y-113537549D01*
X208124227Y-113482379D01*
X208264880Y-113341727D01*
X208341000Y-113157956D01*
X208341000Y-112683500D01*
X208216000Y-112558500D01*
X207491000Y-112558500D01*
X207491000Y-112578500D01*
X207291000Y-112578500D01*
X207291000Y-112558500D01*
X207271000Y-112558500D01*
X207271000Y-112358500D01*
X207291000Y-112358500D01*
X207291000Y-112338500D01*
X207491000Y-112338500D01*
X207491000Y-112358500D01*
X208216000Y-112358500D01*
X208341000Y-112233500D01*
X208341000Y-111759044D01*
X208264880Y-111575273D01*
X208124227Y-111434621D01*
X207940456Y-111358500D01*
X207890243Y-111358500D01*
X208036090Y-111329489D01*
X208201480Y-111218980D01*
X208311989Y-111053590D01*
X208350795Y-110858500D01*
X208350795Y-109658500D01*
X208311989Y-109463410D01*
X208201480Y-109298020D01*
X208036090Y-109187511D01*
X207841000Y-109148705D01*
X206941000Y-109148705D01*
X206745910Y-109187511D01*
X206580520Y-109298020D01*
X206565500Y-109320499D01*
X206550480Y-109298020D01*
X206385090Y-109187511D01*
X206190000Y-109148705D01*
X205290000Y-109148705D01*
X205094910Y-109187511D01*
X204929520Y-109298020D01*
X204819011Y-109463410D01*
X204780205Y-109658500D01*
X204780205Y-110858500D01*
X204819011Y-111053590D01*
X204929520Y-111218980D01*
X205094910Y-111329489D01*
X205240757Y-111358500D01*
X205094910Y-111387511D01*
X204929520Y-111498020D01*
X204819011Y-111663410D01*
X204780205Y-111858500D01*
X204780205Y-111875332D01*
X204583959Y-112006459D01*
X204548981Y-112058807D01*
X204006809Y-112600980D01*
X203954459Y-112635959D01*
X203815880Y-112843358D01*
X203779500Y-113026251D01*
X203779500Y-113026254D01*
X203767218Y-113088000D01*
X203779500Y-113149746D01*
X203779500Y-114106809D01*
X203771500Y-114105218D01*
X203709754Y-114117500D01*
X196530746Y-114117500D01*
X196469000Y-114105218D01*
X196407254Y-114117500D01*
X196407250Y-114117500D01*
X196224357Y-114153880D01*
X196016959Y-114292459D01*
X195981979Y-114344810D01*
X195307310Y-115019479D01*
X195254959Y-115054459D01*
X195116380Y-115261858D01*
X195114554Y-115271039D01*
X194238295Y-114394781D01*
X194238295Y-114081500D01*
X194199489Y-113886410D01*
X194088980Y-113721020D01*
X193923590Y-113610511D01*
X193777743Y-113581500D01*
X193827956Y-113581500D01*
X194011727Y-113505379D01*
X194152380Y-113364727D01*
X194228500Y-113180956D01*
X194228500Y-112556500D01*
X194103500Y-112431500D01*
X193203500Y-112431500D01*
X193203500Y-112451500D01*
X193003500Y-112451500D01*
X193003500Y-112431500D01*
X192103500Y-112431500D01*
X191978500Y-112556500D01*
X191978500Y-113081618D01*
X191758521Y-112990500D01*
X191656014Y-112990500D01*
X191382343Y-112716829D01*
X191343822Y-112659178D01*
X191115419Y-112506564D01*
X190914005Y-112466500D01*
X190914000Y-112466500D01*
X190904367Y-112464584D01*
X190825480Y-112346520D01*
X190765931Y-112306731D01*
X190775227Y-112302880D01*
X190915879Y-112162227D01*
X190992000Y-111978456D01*
X190992000Y-111604000D01*
X190870044Y-111482044D01*
X191978500Y-111482044D01*
X191978500Y-112106500D01*
X192103500Y-112231500D01*
X193003500Y-112231500D01*
X193003500Y-111206500D01*
X193203500Y-111206500D01*
X193203500Y-112231500D01*
X194103500Y-112231500D01*
X194228500Y-112106500D01*
X194228500Y-111482044D01*
X194152380Y-111298273D01*
X194011727Y-111157621D01*
X193827956Y-111081500D01*
X193328500Y-111081500D01*
X193203500Y-111206500D01*
X193003500Y-111206500D01*
X192878500Y-111081500D01*
X192379044Y-111081500D01*
X192195273Y-111157621D01*
X192054620Y-111298273D01*
X191978500Y-111482044D01*
X190870044Y-111482044D01*
X190867000Y-111479000D01*
X190092000Y-111479000D01*
X190092000Y-111499000D01*
X189892000Y-111499000D01*
X189892000Y-111479000D01*
X189117000Y-111479000D01*
X188992000Y-111604000D01*
X188992000Y-111978456D01*
X189068121Y-112162227D01*
X189129960Y-112224066D01*
X189069910Y-112236011D01*
X188904520Y-112346520D01*
X188794011Y-112511910D01*
X188765000Y-112657757D01*
X188735989Y-112511910D01*
X188625480Y-112346520D01*
X188460090Y-112236011D01*
X188367150Y-112217524D01*
X188462989Y-112074090D01*
X188501795Y-111879000D01*
X188501795Y-110879000D01*
X188482012Y-110779544D01*
X188992000Y-110779544D01*
X188992000Y-111154000D01*
X189117000Y-111279000D01*
X189892000Y-111279000D01*
X189892000Y-110504000D01*
X190092000Y-110504000D01*
X190092000Y-111279000D01*
X190867000Y-111279000D01*
X190992000Y-111154000D01*
X190992000Y-110779544D01*
X190965265Y-110715000D01*
X194953000Y-110715000D01*
X194953000Y-111160956D01*
X195029121Y-111344727D01*
X195169773Y-111485380D01*
X195353544Y-111561500D01*
X195482000Y-111561500D01*
X195607000Y-111436500D01*
X195607000Y-110590000D01*
X195078000Y-110590000D01*
X194953000Y-110715000D01*
X190965265Y-110715000D01*
X190915879Y-110595773D01*
X190775227Y-110455120D01*
X190591456Y-110379000D01*
X190217000Y-110379000D01*
X190092000Y-110504000D01*
X189892000Y-110504000D01*
X189767000Y-110379000D01*
X189392544Y-110379000D01*
X189208773Y-110455120D01*
X189068121Y-110595773D01*
X188992000Y-110779544D01*
X188482012Y-110779544D01*
X188462989Y-110683910D01*
X188352480Y-110518520D01*
X188187090Y-110408011D01*
X187992000Y-110369205D01*
X186992000Y-110369205D01*
X186796910Y-110408011D01*
X186682000Y-110484791D01*
X186682000Y-110051211D01*
X186769169Y-109964043D01*
X186795520Y-110003480D01*
X186960910Y-110113989D01*
X187156000Y-110152795D01*
X188256000Y-110152795D01*
X188451090Y-110113989D01*
X188616480Y-110003480D01*
X188726989Y-109838090D01*
X188765795Y-109643000D01*
X188765795Y-108543000D01*
X188726989Y-108347910D01*
X188616480Y-108182520D01*
X188451090Y-108072011D01*
X188256000Y-108033205D01*
X187156000Y-108033205D01*
X186960910Y-108072011D01*
X186795520Y-108182520D01*
X186760105Y-108235523D01*
X186762795Y-108222000D01*
X186762795Y-107784500D01*
X188595708Y-107784500D01*
X188668191Y-107856983D01*
X188998979Y-107994000D01*
X189101486Y-107994000D01*
X189480098Y-108372612D01*
X189446205Y-108543000D01*
X189446205Y-109643000D01*
X189485011Y-109838090D01*
X189595520Y-110003480D01*
X189760910Y-110113989D01*
X189956000Y-110152795D01*
X191056000Y-110152795D01*
X191251090Y-110113989D01*
X191416480Y-110003480D01*
X191526989Y-109838090D01*
X191530777Y-109819044D01*
X194953000Y-109819044D01*
X194953000Y-110265000D01*
X195078000Y-110390000D01*
X195607000Y-110390000D01*
X195607000Y-109543500D01*
X195482000Y-109418500D01*
X195353544Y-109418500D01*
X195169773Y-109494620D01*
X195029121Y-109635273D01*
X194953000Y-109819044D01*
X191530777Y-109819044D01*
X191565795Y-109643000D01*
X191565795Y-108543000D01*
X191526989Y-108347910D01*
X191416480Y-108182520D01*
X191251090Y-108072011D01*
X191056000Y-108033205D01*
X191026146Y-108033205D01*
X191023436Y-108019581D01*
X190914791Y-107856983D01*
X190909343Y-107848829D01*
X190909341Y-107848827D01*
X190870821Y-107791178D01*
X190813173Y-107752659D01*
X190078000Y-107017486D01*
X190078000Y-106914979D01*
X189940983Y-106584191D01*
X189687809Y-106331017D01*
X189357021Y-106194000D01*
X188998979Y-106194000D01*
X188668191Y-106331017D01*
X188595708Y-106403500D01*
X186681620Y-106403500D01*
X186613480Y-106301520D01*
X186448090Y-106191011D01*
X186253000Y-106152205D01*
X185603000Y-106152205D01*
X185407910Y-106191011D01*
X185242520Y-106301520D01*
X185132011Y-106466910D01*
X185093205Y-106662000D01*
X185093205Y-108222000D01*
X185132011Y-108417090D01*
X185242520Y-108582480D01*
X185407910Y-108692989D01*
X185603000Y-108731795D01*
X186228582Y-108731795D01*
X186174459Y-108767959D01*
X186139481Y-108820307D01*
X185655307Y-109304482D01*
X185602960Y-109339459D01*
X185567982Y-109391807D01*
X185567981Y-109391808D01*
X185464380Y-109546858D01*
X185415718Y-109791500D01*
X185425630Y-109841329D01*
X185331846Y-109809075D01*
X184610921Y-110530000D01*
X184625064Y-110544143D01*
X184483643Y-110685564D01*
X184469500Y-110671421D01*
X184455358Y-110685564D01*
X184313937Y-110544143D01*
X184328079Y-110530000D01*
X183607154Y-109809075D01*
X183403504Y-109879115D01*
X183235565Y-110336600D01*
X183255482Y-110823528D01*
X183403504Y-111180885D01*
X183422143Y-111187295D01*
X183323511Y-111334910D01*
X183284705Y-111530000D01*
X183284705Y-111930000D01*
X183309569Y-112055000D01*
X183284705Y-112180000D01*
X183284705Y-112580000D01*
X183309569Y-112705000D01*
X183284705Y-112830000D01*
X183284705Y-113230000D01*
X183309569Y-113355000D01*
X183284705Y-113480000D01*
X183284705Y-113880000D01*
X183308113Y-113997679D01*
X183294500Y-114030544D01*
X183294500Y-114105000D01*
X183419500Y-114230000D01*
X183427018Y-114230000D01*
X183434020Y-114240480D01*
X183599410Y-114350989D01*
X183794500Y-114389795D01*
X183997772Y-114389795D01*
X183900708Y-114430000D01*
X183419500Y-114430000D01*
X183294500Y-114555000D01*
X183294500Y-114629456D01*
X183370620Y-114813227D01*
X183428062Y-114870669D01*
X183403504Y-114879115D01*
X183235565Y-115336600D01*
X183255482Y-115823528D01*
X183403504Y-116180885D01*
X183607154Y-116250925D01*
X184328079Y-115530000D01*
X184313937Y-115515858D01*
X184455358Y-115374437D01*
X184469500Y-115388579D01*
X184483643Y-115374437D01*
X184625064Y-115515858D01*
X184610921Y-115530000D01*
X185331846Y-116250925D01*
X185535496Y-116180885D01*
X185703435Y-115723400D01*
X185683518Y-115236472D01*
X185535496Y-114879115D01*
X185510938Y-114870669D01*
X185568380Y-114813227D01*
X185644500Y-114629456D01*
X185644500Y-114555000D01*
X185519500Y-114430000D01*
X185027754Y-114430000D01*
X184918231Y-114389795D01*
X185144500Y-114389795D01*
X185339590Y-114350989D01*
X185504980Y-114240480D01*
X185511982Y-114230000D01*
X185519500Y-114230000D01*
X185615644Y-114133856D01*
X185872500Y-114390712D01*
X185872501Y-115127749D01*
X185860218Y-115189500D01*
X185908880Y-115434142D01*
X186007342Y-115581500D01*
X186047460Y-115641541D01*
X186099807Y-115676518D01*
X186555205Y-116131916D01*
X186555205Y-116655000D01*
X186594011Y-116850090D01*
X186704520Y-117015480D01*
X186748119Y-117044612D01*
X186631520Y-117122520D01*
X186521011Y-117287910D01*
X186482205Y-117483000D01*
X186482205Y-118483000D01*
X186521011Y-118678090D01*
X186631520Y-118843480D01*
X186796910Y-118953989D01*
X186992000Y-118992795D01*
X187992000Y-118992795D01*
X188187090Y-118953989D01*
X188352480Y-118843480D01*
X188462989Y-118678090D01*
X188501795Y-118483000D01*
X188501795Y-118208000D01*
X188992000Y-118208000D01*
X188992000Y-118582456D01*
X189068121Y-118766227D01*
X189208773Y-118906880D01*
X189392544Y-118983000D01*
X189767000Y-118983000D01*
X189892000Y-118858000D01*
X189892000Y-118083000D01*
X190092000Y-118083000D01*
X190092000Y-118858000D01*
X190217000Y-118983000D01*
X190591456Y-118983000D01*
X190775227Y-118906880D01*
X190915879Y-118766227D01*
X190992000Y-118582456D01*
X190992000Y-118208000D01*
X190867000Y-118083000D01*
X190092000Y-118083000D01*
X189892000Y-118083000D01*
X189117000Y-118083000D01*
X188992000Y-118208000D01*
X188501795Y-118208000D01*
X188501795Y-117483000D01*
X188462989Y-117287910D01*
X188367150Y-117144476D01*
X188460090Y-117125989D01*
X188625480Y-117015480D01*
X188735989Y-116850090D01*
X188765000Y-116704243D01*
X188794011Y-116850090D01*
X188904520Y-117015480D01*
X189069910Y-117125989D01*
X189129960Y-117137934D01*
X189068121Y-117199773D01*
X188992000Y-117383544D01*
X188992000Y-117758000D01*
X189117000Y-117883000D01*
X189892000Y-117883000D01*
X189892000Y-117863000D01*
X190092000Y-117863000D01*
X190092000Y-117883000D01*
X190867000Y-117883000D01*
X190992000Y-117758000D01*
X190992000Y-117383544D01*
X190978683Y-117351395D01*
X191143000Y-117515712D01*
X191143000Y-117540254D01*
X191130718Y-117602000D01*
X191143000Y-117663746D01*
X191143000Y-117663750D01*
X191179380Y-117846643D01*
X191235412Y-117930500D01*
X191281851Y-118000000D01*
X191317960Y-118054041D01*
X191370308Y-118089019D01*
X192044979Y-118763690D01*
X192079959Y-118816041D01*
X192287357Y-118954620D01*
X192470250Y-118991000D01*
X192470254Y-118991000D01*
X192532000Y-119003282D01*
X192593746Y-118991000D01*
X196153254Y-118991000D01*
X196215000Y-119003282D01*
X196276746Y-118991000D01*
X196276750Y-118991000D01*
X196350001Y-118976429D01*
X196350000Y-120263288D01*
X196085743Y-120527545D01*
X195874390Y-120440000D01*
X195285610Y-120440000D01*
X194741647Y-120665317D01*
X194325317Y-121081647D01*
X194312023Y-121113742D01*
X194086785Y-121014636D01*
X193181421Y-121920000D01*
X193195564Y-121934143D01*
X193054143Y-122075564D01*
X193040000Y-122061421D01*
X193025858Y-122075564D01*
X192884437Y-121934143D01*
X192898579Y-121920000D01*
X191993215Y-121014636D01*
X191767977Y-121113742D01*
X191754683Y-121081647D01*
X191546251Y-120873215D01*
X192134636Y-120873215D01*
X193040000Y-121778579D01*
X193945364Y-120873215D01*
X193844113Y-120643102D01*
X193294256Y-120432580D01*
X192705691Y-120448503D01*
X192235887Y-120643102D01*
X192134636Y-120873215D01*
X191546251Y-120873215D01*
X191338353Y-120665317D01*
X191186832Y-120602555D01*
X191150436Y-120419581D01*
X190997822Y-120191178D01*
X190940171Y-120152657D01*
X190108343Y-119320829D01*
X190069822Y-119263178D01*
X189841419Y-119110564D01*
X189640005Y-119070500D01*
X189640000Y-119070500D01*
X189572000Y-119056974D01*
X189504000Y-119070500D01*
X186623949Y-119070500D01*
X186594989Y-118924910D01*
X186484480Y-118759520D01*
X186357012Y-118674349D01*
X186324436Y-118510581D01*
X186297334Y-118470019D01*
X186239269Y-118383120D01*
X186171822Y-118282178D01*
X186114171Y-118243657D01*
X186066000Y-118195486D01*
X186066000Y-117930979D01*
X185928983Y-117600191D01*
X185675809Y-117347017D01*
X185345021Y-117210000D01*
X184986979Y-117210000D01*
X184656191Y-117347017D01*
X184403017Y-117600191D01*
X184266000Y-117930979D01*
X184266000Y-118075613D01*
X184083456Y-118000000D01*
X183359000Y-118000000D01*
X183234000Y-118125000D01*
X183234000Y-118850000D01*
X184359000Y-118850000D01*
X184484000Y-118725000D01*
X184484000Y-118700792D01*
X184656191Y-118872983D01*
X184759198Y-118915650D01*
X184753011Y-118924910D01*
X184714205Y-119120000D01*
X184714205Y-120320000D01*
X184753011Y-120515090D01*
X184863520Y-120680480D01*
X185028910Y-120790989D01*
X185174757Y-120820000D01*
X185028910Y-120849011D01*
X184863520Y-120959520D01*
X184753011Y-121124910D01*
X184714205Y-121320000D01*
X184714205Y-121723000D01*
X184458587Y-121723000D01*
X184454989Y-121704910D01*
X184344480Y-121539520D01*
X184179090Y-121429011D01*
X183984000Y-121390205D01*
X182284000Y-121390205D01*
X182088910Y-121429011D01*
X181923520Y-121539520D01*
X181813011Y-121704910D01*
X181774205Y-121900000D01*
X181774205Y-122590000D01*
X181075000Y-122590000D01*
X181075000Y-119175000D01*
X181784000Y-119175000D01*
X181784000Y-119499456D01*
X181860120Y-119683227D01*
X182000773Y-119823879D01*
X182184544Y-119900000D01*
X182909000Y-119900000D01*
X183034000Y-119775000D01*
X183034000Y-119050000D01*
X183234000Y-119050000D01*
X183234000Y-119775000D01*
X183359000Y-119900000D01*
X184083456Y-119900000D01*
X184267227Y-119823879D01*
X184407880Y-119683227D01*
X184484000Y-119499456D01*
X184484000Y-119175000D01*
X184359000Y-119050000D01*
X183234000Y-119050000D01*
X183034000Y-119050000D01*
X181909000Y-119050000D01*
X181784000Y-119175000D01*
X181075000Y-119175000D01*
X181075000Y-118400544D01*
X181784000Y-118400544D01*
X181784000Y-118725000D01*
X181909000Y-118850000D01*
X183034000Y-118850000D01*
X183034000Y-118125000D01*
X182909000Y-118000000D01*
X182184544Y-118000000D01*
X182000773Y-118076121D01*
X181860120Y-118216773D01*
X181784000Y-118400544D01*
X181075000Y-118400544D01*
X181075000Y-117557834D01*
X181319500Y-117630000D01*
X181669500Y-117630000D01*
X181669500Y-114130000D01*
X181869500Y-114130000D01*
X181869500Y-117630000D01*
X182219500Y-117630000D01*
X182632840Y-117507999D01*
X182968028Y-117237107D01*
X183174036Y-116858564D01*
X183185815Y-116800134D01*
X183164428Y-116762412D01*
X183219500Y-116629456D01*
X183219500Y-116392346D01*
X183748575Y-116392346D01*
X183818615Y-116595996D01*
X184276100Y-116763935D01*
X184763028Y-116744018D01*
X185120385Y-116595996D01*
X185190425Y-116392346D01*
X184469500Y-115671421D01*
X183748575Y-116392346D01*
X183219500Y-116392346D01*
X183219500Y-116155000D01*
X183094500Y-116030000D01*
X183080738Y-116030000D01*
X182971896Y-115830000D01*
X183094500Y-115830000D01*
X183219500Y-115705000D01*
X183219500Y-115230544D01*
X183146788Y-115055000D01*
X183219500Y-114879456D01*
X183219500Y-114255000D01*
X183094500Y-114130000D01*
X181869500Y-114130000D01*
X181669500Y-114130000D01*
X181649500Y-114130000D01*
X181649500Y-113930000D01*
X181669500Y-113930000D01*
X181669500Y-112130000D01*
X181869500Y-112130000D01*
X181869500Y-113930000D01*
X183094500Y-113930000D01*
X183219500Y-113805000D01*
X183219500Y-113180544D01*
X183157143Y-113030000D01*
X183219500Y-112879456D01*
X183219500Y-112255000D01*
X183094500Y-112130000D01*
X181869500Y-112130000D01*
X181669500Y-112130000D01*
X181649500Y-112130000D01*
X181649500Y-111930000D01*
X181669500Y-111930000D01*
X181669500Y-108430000D01*
X181869500Y-108430000D01*
X181869500Y-111930000D01*
X183094500Y-111930000D01*
X183219500Y-111805000D01*
X183219500Y-111180544D01*
X183146788Y-111005000D01*
X183219500Y-110829456D01*
X183219500Y-110355000D01*
X183094500Y-110230000D01*
X182971896Y-110230000D01*
X183080738Y-110030000D01*
X183094500Y-110030000D01*
X183219500Y-109905000D01*
X183219500Y-109667654D01*
X183748575Y-109667654D01*
X184469500Y-110388579D01*
X185190425Y-109667654D01*
X185120385Y-109464004D01*
X184662900Y-109296065D01*
X184175972Y-109315982D01*
X183818615Y-109464004D01*
X183748575Y-109667654D01*
X183219500Y-109667654D01*
X183219500Y-109430544D01*
X183164428Y-109297588D01*
X183185815Y-109259866D01*
X183174036Y-109201436D01*
X182968028Y-108822893D01*
X182632840Y-108552001D01*
X182219500Y-108430000D01*
X181869500Y-108430000D01*
X181669500Y-108430000D01*
X181319500Y-108430000D01*
X181075000Y-108502166D01*
X181075000Y-108016607D01*
X181146273Y-108087879D01*
X181330044Y-108164000D01*
X181829500Y-108164000D01*
X181954500Y-108039000D01*
X181954500Y-107014000D01*
X182154500Y-107014000D01*
X182154500Y-108039000D01*
X182279500Y-108164000D01*
X182778956Y-108164000D01*
X182962727Y-108087879D01*
X183103380Y-107947227D01*
X183179500Y-107763456D01*
X183179500Y-107139000D01*
X183054500Y-107014000D01*
X182154500Y-107014000D01*
X181954500Y-107014000D01*
X181934500Y-107014000D01*
X181934500Y-106814000D01*
X181954500Y-106814000D01*
X181954500Y-106794000D01*
X182154500Y-106794000D01*
X182154500Y-106814000D01*
X183054500Y-106814000D01*
X183179500Y-106689000D01*
X183179500Y-106662000D01*
X183193205Y-106662000D01*
X183193205Y-108222000D01*
X183232011Y-108417090D01*
X183342520Y-108582480D01*
X183507910Y-108692989D01*
X183703000Y-108731795D01*
X184353000Y-108731795D01*
X184548090Y-108692989D01*
X184713480Y-108582480D01*
X184823989Y-108417090D01*
X184862795Y-108222000D01*
X184862795Y-106662000D01*
X184823989Y-106466910D01*
X184713480Y-106301520D01*
X184548090Y-106191011D01*
X184353000Y-106152205D01*
X183703000Y-106152205D01*
X183507910Y-106191011D01*
X183342520Y-106301520D01*
X183232011Y-106466910D01*
X183193205Y-106662000D01*
X183179500Y-106662000D01*
X183179500Y-106064544D01*
X183103380Y-105880773D01*
X182962727Y-105740121D01*
X182778956Y-105664000D01*
X182728743Y-105664000D01*
X182874590Y-105634989D01*
X183039980Y-105524480D01*
X183150489Y-105359090D01*
X183189295Y-105164000D01*
X183189295Y-105104500D01*
X183193205Y-105104500D01*
X183193205Y-105522000D01*
X183232011Y-105717090D01*
X183342520Y-105882480D01*
X183507910Y-105992989D01*
X183703000Y-106031795D01*
X184353000Y-106031795D01*
X184504458Y-106001668D01*
X184553544Y-106022000D01*
X184753000Y-106022000D01*
X184878000Y-105897000D01*
X184878000Y-104842000D01*
X184862795Y-104842000D01*
X184862795Y-104642000D01*
X184878000Y-104642000D01*
X184878000Y-104622000D01*
X185078000Y-104622000D01*
X185078000Y-104642000D01*
X185093205Y-104642000D01*
X185093205Y-104842000D01*
X185078000Y-104842000D01*
X185078000Y-105897000D01*
X185203000Y-106022000D01*
X185402456Y-106022000D01*
X185451542Y-106001668D01*
X185603000Y-106031795D01*
X186253000Y-106031795D01*
X186448090Y-105992989D01*
X186613480Y-105882480D01*
X186723989Y-105717090D01*
X186762795Y-105522000D01*
X186762795Y-105432500D01*
X186782000Y-105432500D01*
X186850000Y-105446026D01*
X186918000Y-105432500D01*
X186918005Y-105432500D01*
X187119419Y-105392436D01*
X187347822Y-105239822D01*
X187386343Y-105182171D01*
X187738015Y-104830500D01*
X189184074Y-104830500D01*
X189245317Y-104978353D01*
X189661647Y-105394683D01*
X190205610Y-105620000D01*
X190794390Y-105620000D01*
X191338353Y-105394683D01*
X191546251Y-105186785D01*
X192134636Y-105186785D01*
X192235887Y-105416898D01*
X192785744Y-105627420D01*
X193374309Y-105611497D01*
X193844113Y-105416898D01*
X193945364Y-105186785D01*
X193040000Y-104281421D01*
X192134636Y-105186785D01*
X191546251Y-105186785D01*
X191754683Y-104978353D01*
X191767977Y-104946258D01*
X191993215Y-105045364D01*
X192898579Y-104140000D01*
X192884437Y-104125858D01*
X193025858Y-103984437D01*
X193040000Y-103998579D01*
X193054143Y-103984437D01*
X193195564Y-104125858D01*
X193195564Y-104125858D01*
G37*
X193195564Y-104125858D02*
X193181421Y-104140000D01*
X194086785Y-105045364D01*
X194312023Y-104946258D01*
X194325317Y-104978353D01*
X194741647Y-105394683D01*
X194969995Y-105489268D01*
X194989380Y-105586723D01*
X195091878Y-105740121D01*
X195127960Y-105794122D01*
X195180307Y-105829099D01*
X196350000Y-106998793D01*
X196350001Y-109576756D01*
X196340533Y-109590926D01*
X196244227Y-109494620D01*
X196060456Y-109418500D01*
X195932000Y-109418500D01*
X195807000Y-109543500D01*
X195807000Y-110390000D01*
X195827000Y-110390000D01*
X195827000Y-110590000D01*
X195807000Y-110590000D01*
X195807000Y-111436500D01*
X195932000Y-111561500D01*
X196060456Y-111561500D01*
X196244227Y-111485380D01*
X196340533Y-111389074D01*
X196362520Y-111421980D01*
X196527910Y-111532489D01*
X196723000Y-111571295D01*
X197231000Y-111571295D01*
X197426090Y-111532489D01*
X197591480Y-111421980D01*
X197612000Y-111391269D01*
X197632520Y-111421980D01*
X197797910Y-111532489D01*
X197993000Y-111571295D01*
X198501000Y-111571295D01*
X198696090Y-111532489D01*
X198861480Y-111421980D01*
X198882000Y-111391269D01*
X198902520Y-111421980D01*
X199067910Y-111532489D01*
X199263000Y-111571295D01*
X199771000Y-111571295D01*
X199966090Y-111532489D01*
X200131480Y-111421980D01*
X200152000Y-111391269D01*
X200172520Y-111421980D01*
X200337910Y-111532489D01*
X200533000Y-111571295D01*
X201041000Y-111571295D01*
X201236090Y-111532489D01*
X201401480Y-111421980D01*
X201422000Y-111391269D01*
X201442520Y-111421980D01*
X201607910Y-111532489D01*
X201803000Y-111571295D01*
X202311000Y-111571295D01*
X202506090Y-111532489D01*
X202671480Y-111421980D01*
X202692000Y-111391269D01*
X202712520Y-111421980D01*
X202877910Y-111532489D01*
X203073000Y-111571295D01*
X203581000Y-111571295D01*
X203776090Y-111532489D01*
X203941480Y-111421980D01*
X204051989Y-111256590D01*
X204090795Y-111061500D01*
X204090795Y-109918500D01*
X204051989Y-109723410D01*
X203954000Y-109576758D01*
X203954000Y-109289211D01*
X204920211Y-108323000D01*
X206186254Y-108323000D01*
X206248000Y-108335282D01*
X206309746Y-108323000D01*
X206309750Y-108323000D01*
X206492643Y-108286620D01*
X206700041Y-108148041D01*
X206735020Y-108095691D01*
X208679693Y-106151019D01*
X208732041Y-106116041D01*
X208780679Y-106043250D01*
X208870620Y-105908643D01*
X208876164Y-105880773D01*
X208907000Y-105725750D01*
X208907000Y-105725746D01*
X208919282Y-105664000D01*
X208907000Y-105602254D01*
X208907000Y-105482228D01*
X209118353Y-105394683D01*
X209450000Y-105063036D01*
X209450000Y-120996964D01*
X209118353Y-120665317D01*
X208908282Y-120578303D01*
X208919282Y-120523000D01*
X208907000Y-120461254D01*
X208907000Y-120461250D01*
X208870620Y-120278357D01*
X208857567Y-120258822D01*
X208767020Y-120123308D01*
X208767019Y-120123307D01*
X208732041Y-120070959D01*
X208679693Y-120035981D01*
X207560520Y-118916809D01*
X207525541Y-118864459D01*
X207318143Y-118725880D01*
X207222898Y-118706934D01*
X207254643Y-118700620D01*
X207462041Y-118562041D01*
X207497021Y-118509690D01*
X207790691Y-118216020D01*
X207843041Y-118181041D01*
X207981620Y-117973643D01*
X207997012Y-117896262D01*
X208036090Y-117888489D01*
X208201480Y-117777980D01*
X208311989Y-117612590D01*
X208350795Y-117417500D01*
X208350795Y-116217500D01*
X208311989Y-116022410D01*
X208201480Y-115857020D01*
X208036090Y-115746511D01*
X207890243Y-115717500D01*
X208036090Y-115688489D01*
X208201480Y-115577980D01*
X208311989Y-115412590D01*
X208350795Y-115217500D01*
X208350795Y-114017500D01*
X208311989Y-113822410D01*
X208201480Y-113657020D01*
X208036090Y-113546511D01*
X207991036Y-113537549D01*
X208124227Y-113482379D01*
X208264880Y-113341727D01*
X208341000Y-113157956D01*
X208341000Y-112683500D01*
X208216000Y-112558500D01*
X207491000Y-112558500D01*
X207491000Y-112578500D01*
X207291000Y-112578500D01*
X207291000Y-112558500D01*
X207271000Y-112558500D01*
X207271000Y-112358500D01*
X207291000Y-112358500D01*
X207291000Y-112338500D01*
X207491000Y-112338500D01*
X207491000Y-112358500D01*
X208216000Y-112358500D01*
X208341000Y-112233500D01*
X208341000Y-111759044D01*
X208264880Y-111575273D01*
X208124227Y-111434621D01*
X207940456Y-111358500D01*
X207890243Y-111358500D01*
X208036090Y-111329489D01*
X208201480Y-111218980D01*
X208311989Y-111053590D01*
X208350795Y-110858500D01*
X208350795Y-109658500D01*
X208311989Y-109463410D01*
X208201480Y-109298020D01*
X208036090Y-109187511D01*
X207841000Y-109148705D01*
X206941000Y-109148705D01*
X206745910Y-109187511D01*
X206580520Y-109298020D01*
X206565500Y-109320499D01*
X206550480Y-109298020D01*
X206385090Y-109187511D01*
X206190000Y-109148705D01*
X205290000Y-109148705D01*
X205094910Y-109187511D01*
X204929520Y-109298020D01*
X204819011Y-109463410D01*
X204780205Y-109658500D01*
X204780205Y-110858500D01*
X204819011Y-111053590D01*
X204929520Y-111218980D01*
X205094910Y-111329489D01*
X205240757Y-111358500D01*
X205094910Y-111387511D01*
X204929520Y-111498020D01*
X204819011Y-111663410D01*
X204780205Y-111858500D01*
X204780205Y-111875332D01*
X204583959Y-112006459D01*
X204548981Y-112058807D01*
X204006809Y-112600980D01*
X203954459Y-112635959D01*
X203815880Y-112843358D01*
X203779500Y-113026251D01*
X203779500Y-113026254D01*
X203767218Y-113088000D01*
X203779500Y-113149746D01*
X203779500Y-114106809D01*
X203771500Y-114105218D01*
X203709754Y-114117500D01*
X196530746Y-114117500D01*
X196469000Y-114105218D01*
X196407254Y-114117500D01*
X196407250Y-114117500D01*
X196224357Y-114153880D01*
X196016959Y-114292459D01*
X195981979Y-114344810D01*
X195307310Y-115019479D01*
X195254959Y-115054459D01*
X195116380Y-115261858D01*
X195114554Y-115271039D01*
X194238295Y-114394781D01*
X194238295Y-114081500D01*
X194199489Y-113886410D01*
X194088980Y-113721020D01*
X193923590Y-113610511D01*
X193777743Y-113581500D01*
X193827956Y-113581500D01*
X194011727Y-113505379D01*
X194152380Y-113364727D01*
X194228500Y-113180956D01*
X194228500Y-112556500D01*
X194103500Y-112431500D01*
X193203500Y-112431500D01*
X193203500Y-112451500D01*
X193003500Y-112451500D01*
X193003500Y-112431500D01*
X192103500Y-112431500D01*
X191978500Y-112556500D01*
X191978500Y-113081618D01*
X191758521Y-112990500D01*
X191656014Y-112990500D01*
X191382343Y-112716829D01*
X191343822Y-112659178D01*
X191115419Y-112506564D01*
X190914005Y-112466500D01*
X190914000Y-112466500D01*
X190904367Y-112464584D01*
X190825480Y-112346520D01*
X190765931Y-112306731D01*
X190775227Y-112302880D01*
X190915879Y-112162227D01*
X190992000Y-111978456D01*
X190992000Y-111604000D01*
X190870044Y-111482044D01*
X191978500Y-111482044D01*
X191978500Y-112106500D01*
X192103500Y-112231500D01*
X193003500Y-112231500D01*
X193003500Y-111206500D01*
X193203500Y-111206500D01*
X193203500Y-112231500D01*
X194103500Y-112231500D01*
X194228500Y-112106500D01*
X194228500Y-111482044D01*
X194152380Y-111298273D01*
X194011727Y-111157621D01*
X193827956Y-111081500D01*
X193328500Y-111081500D01*
X193203500Y-111206500D01*
X193003500Y-111206500D01*
X192878500Y-111081500D01*
X192379044Y-111081500D01*
X192195273Y-111157621D01*
X192054620Y-111298273D01*
X191978500Y-111482044D01*
X190870044Y-111482044D01*
X190867000Y-111479000D01*
X190092000Y-111479000D01*
X190092000Y-111499000D01*
X189892000Y-111499000D01*
X189892000Y-111479000D01*
X189117000Y-111479000D01*
X188992000Y-111604000D01*
X188992000Y-111978456D01*
X189068121Y-112162227D01*
X189129960Y-112224066D01*
X189069910Y-112236011D01*
X188904520Y-112346520D01*
X188794011Y-112511910D01*
X188765000Y-112657757D01*
X188735989Y-112511910D01*
X188625480Y-112346520D01*
X188460090Y-112236011D01*
X188367150Y-112217524D01*
X188462989Y-112074090D01*
X188501795Y-111879000D01*
X188501795Y-110879000D01*
X188482012Y-110779544D01*
X188992000Y-110779544D01*
X188992000Y-111154000D01*
X189117000Y-111279000D01*
X189892000Y-111279000D01*
X189892000Y-110504000D01*
X190092000Y-110504000D01*
X190092000Y-111279000D01*
X190867000Y-111279000D01*
X190992000Y-111154000D01*
X190992000Y-110779544D01*
X190965265Y-110715000D01*
X194953000Y-110715000D01*
X194953000Y-111160956D01*
X195029121Y-111344727D01*
X195169773Y-111485380D01*
X195353544Y-111561500D01*
X195482000Y-111561500D01*
X195607000Y-111436500D01*
X195607000Y-110590000D01*
X195078000Y-110590000D01*
X194953000Y-110715000D01*
X190965265Y-110715000D01*
X190915879Y-110595773D01*
X190775227Y-110455120D01*
X190591456Y-110379000D01*
X190217000Y-110379000D01*
X190092000Y-110504000D01*
X189892000Y-110504000D01*
X189767000Y-110379000D01*
X189392544Y-110379000D01*
X189208773Y-110455120D01*
X189068121Y-110595773D01*
X188992000Y-110779544D01*
X188482012Y-110779544D01*
X188462989Y-110683910D01*
X188352480Y-110518520D01*
X188187090Y-110408011D01*
X187992000Y-110369205D01*
X186992000Y-110369205D01*
X186796910Y-110408011D01*
X186682000Y-110484791D01*
X186682000Y-110051211D01*
X186769169Y-109964043D01*
X186795520Y-110003480D01*
X186960910Y-110113989D01*
X187156000Y-110152795D01*
X188256000Y-110152795D01*
X188451090Y-110113989D01*
X188616480Y-110003480D01*
X188726989Y-109838090D01*
X188765795Y-109643000D01*
X188765795Y-108543000D01*
X188726989Y-108347910D01*
X188616480Y-108182520D01*
X188451090Y-108072011D01*
X188256000Y-108033205D01*
X187156000Y-108033205D01*
X186960910Y-108072011D01*
X186795520Y-108182520D01*
X186760105Y-108235523D01*
X186762795Y-108222000D01*
X186762795Y-107784500D01*
X188595708Y-107784500D01*
X188668191Y-107856983D01*
X188998979Y-107994000D01*
X189101486Y-107994000D01*
X189480098Y-108372612D01*
X189446205Y-108543000D01*
X189446205Y-109643000D01*
X189485011Y-109838090D01*
X189595520Y-110003480D01*
X189760910Y-110113989D01*
X189956000Y-110152795D01*
X191056000Y-110152795D01*
X191251090Y-110113989D01*
X191416480Y-110003480D01*
X191526989Y-109838090D01*
X191530777Y-109819044D01*
X194953000Y-109819044D01*
X194953000Y-110265000D01*
X195078000Y-110390000D01*
X195607000Y-110390000D01*
X195607000Y-109543500D01*
X195482000Y-109418500D01*
X195353544Y-109418500D01*
X195169773Y-109494620D01*
X195029121Y-109635273D01*
X194953000Y-109819044D01*
X191530777Y-109819044D01*
X191565795Y-109643000D01*
X191565795Y-108543000D01*
X191526989Y-108347910D01*
X191416480Y-108182520D01*
X191251090Y-108072011D01*
X191056000Y-108033205D01*
X191026146Y-108033205D01*
X191023436Y-108019581D01*
X190914791Y-107856983D01*
X190909343Y-107848829D01*
X190909341Y-107848827D01*
X190870821Y-107791178D01*
X190813173Y-107752659D01*
X190078000Y-107017486D01*
X190078000Y-106914979D01*
X189940983Y-106584191D01*
X189687809Y-106331017D01*
X189357021Y-106194000D01*
X188998979Y-106194000D01*
X188668191Y-106331017D01*
X188595708Y-106403500D01*
X186681620Y-106403500D01*
X186613480Y-106301520D01*
X186448090Y-106191011D01*
X186253000Y-106152205D01*
X185603000Y-106152205D01*
X185407910Y-106191011D01*
X185242520Y-106301520D01*
X185132011Y-106466910D01*
X185093205Y-106662000D01*
X185093205Y-108222000D01*
X185132011Y-108417090D01*
X185242520Y-108582480D01*
X185407910Y-108692989D01*
X185603000Y-108731795D01*
X186228582Y-108731795D01*
X186174459Y-108767959D01*
X186139481Y-108820307D01*
X185655307Y-109304482D01*
X185602960Y-109339459D01*
X185567982Y-109391807D01*
X185567981Y-109391808D01*
X185464380Y-109546858D01*
X185415718Y-109791500D01*
X185425630Y-109841329D01*
X185331846Y-109809075D01*
X184610921Y-110530000D01*
X184625064Y-110544143D01*
X184483643Y-110685564D01*
X184469500Y-110671421D01*
X184455358Y-110685564D01*
X184313937Y-110544143D01*
X184328079Y-110530000D01*
X183607154Y-109809075D01*
X183403504Y-109879115D01*
X183235565Y-110336600D01*
X183255482Y-110823528D01*
X183403504Y-111180885D01*
X183422143Y-111187295D01*
X183323511Y-111334910D01*
X183284705Y-111530000D01*
X183284705Y-111930000D01*
X183309569Y-112055000D01*
X183284705Y-112180000D01*
X183284705Y-112580000D01*
X183309569Y-112705000D01*
X183284705Y-112830000D01*
X183284705Y-113230000D01*
X183309569Y-113355000D01*
X183284705Y-113480000D01*
X183284705Y-113880000D01*
X183308113Y-113997679D01*
X183294500Y-114030544D01*
X183294500Y-114105000D01*
X183419500Y-114230000D01*
X183427018Y-114230000D01*
X183434020Y-114240480D01*
X183599410Y-114350989D01*
X183794500Y-114389795D01*
X183997772Y-114389795D01*
X183900708Y-114430000D01*
X183419500Y-114430000D01*
X183294500Y-114555000D01*
X183294500Y-114629456D01*
X183370620Y-114813227D01*
X183428062Y-114870669D01*
X183403504Y-114879115D01*
X183235565Y-115336600D01*
X183255482Y-115823528D01*
X183403504Y-116180885D01*
X183607154Y-116250925D01*
X184328079Y-115530000D01*
X184313937Y-115515858D01*
X184455358Y-115374437D01*
X184469500Y-115388579D01*
X184483643Y-115374437D01*
X184625064Y-115515858D01*
X184610921Y-115530000D01*
X185331846Y-116250925D01*
X185535496Y-116180885D01*
X185703435Y-115723400D01*
X185683518Y-115236472D01*
X185535496Y-114879115D01*
X185510938Y-114870669D01*
X185568380Y-114813227D01*
X185644500Y-114629456D01*
X185644500Y-114555000D01*
X185519500Y-114430000D01*
X185027754Y-114430000D01*
X184918231Y-114389795D01*
X185144500Y-114389795D01*
X185339590Y-114350989D01*
X185504980Y-114240480D01*
X185511982Y-114230000D01*
X185519500Y-114230000D01*
X185615644Y-114133856D01*
X185872500Y-114390712D01*
X185872501Y-115127749D01*
X185860218Y-115189500D01*
X185908880Y-115434142D01*
X186007342Y-115581500D01*
X186047460Y-115641541D01*
X186099807Y-115676518D01*
X186555205Y-116131916D01*
X186555205Y-116655000D01*
X186594011Y-116850090D01*
X186704520Y-117015480D01*
X186748119Y-117044612D01*
X186631520Y-117122520D01*
X186521011Y-117287910D01*
X186482205Y-117483000D01*
X186482205Y-118483000D01*
X186521011Y-118678090D01*
X186631520Y-118843480D01*
X186796910Y-118953989D01*
X186992000Y-118992795D01*
X187992000Y-118992795D01*
X188187090Y-118953989D01*
X188352480Y-118843480D01*
X188462989Y-118678090D01*
X188501795Y-118483000D01*
X188501795Y-118208000D01*
X188992000Y-118208000D01*
X188992000Y-118582456D01*
X189068121Y-118766227D01*
X189208773Y-118906880D01*
X189392544Y-118983000D01*
X189767000Y-118983000D01*
X189892000Y-118858000D01*
X189892000Y-118083000D01*
X190092000Y-118083000D01*
X190092000Y-118858000D01*
X190217000Y-118983000D01*
X190591456Y-118983000D01*
X190775227Y-118906880D01*
X190915879Y-118766227D01*
X190992000Y-118582456D01*
X190992000Y-118208000D01*
X190867000Y-118083000D01*
X190092000Y-118083000D01*
X189892000Y-118083000D01*
X189117000Y-118083000D01*
X188992000Y-118208000D01*
X188501795Y-118208000D01*
X188501795Y-117483000D01*
X188462989Y-117287910D01*
X188367150Y-117144476D01*
X188460090Y-117125989D01*
X188625480Y-117015480D01*
X188735989Y-116850090D01*
X188765000Y-116704243D01*
X188794011Y-116850090D01*
X188904520Y-117015480D01*
X189069910Y-117125989D01*
X189129960Y-117137934D01*
X189068121Y-117199773D01*
X188992000Y-117383544D01*
X188992000Y-117758000D01*
X189117000Y-117883000D01*
X189892000Y-117883000D01*
X189892000Y-117863000D01*
X190092000Y-117863000D01*
X190092000Y-117883000D01*
X190867000Y-117883000D01*
X190992000Y-117758000D01*
X190992000Y-117383544D01*
X190978683Y-117351395D01*
X191143000Y-117515712D01*
X191143000Y-117540254D01*
X191130718Y-117602000D01*
X191143000Y-117663746D01*
X191143000Y-117663750D01*
X191179380Y-117846643D01*
X191235412Y-117930500D01*
X191281851Y-118000000D01*
X191317960Y-118054041D01*
X191370308Y-118089019D01*
X192044979Y-118763690D01*
X192079959Y-118816041D01*
X192287357Y-118954620D01*
X192470250Y-118991000D01*
X192470254Y-118991000D01*
X192532000Y-119003282D01*
X192593746Y-118991000D01*
X196153254Y-118991000D01*
X196215000Y-119003282D01*
X196276746Y-118991000D01*
X196276750Y-118991000D01*
X196350001Y-118976429D01*
X196350000Y-120263288D01*
X196085743Y-120527545D01*
X195874390Y-120440000D01*
X195285610Y-120440000D01*
X194741647Y-120665317D01*
X194325317Y-121081647D01*
X194312023Y-121113742D01*
X194086785Y-121014636D01*
X193181421Y-121920000D01*
X193195564Y-121934143D01*
X193054143Y-122075564D01*
X193040000Y-122061421D01*
X193025858Y-122075564D01*
X192884437Y-121934143D01*
X192898579Y-121920000D01*
X191993215Y-121014636D01*
X191767977Y-121113742D01*
X191754683Y-121081647D01*
X191546251Y-120873215D01*
X192134636Y-120873215D01*
X193040000Y-121778579D01*
X193945364Y-120873215D01*
X193844113Y-120643102D01*
X193294256Y-120432580D01*
X192705691Y-120448503D01*
X192235887Y-120643102D01*
X192134636Y-120873215D01*
X191546251Y-120873215D01*
X191338353Y-120665317D01*
X191186832Y-120602555D01*
X191150436Y-120419581D01*
X190997822Y-120191178D01*
X190940171Y-120152657D01*
X190108343Y-119320829D01*
X190069822Y-119263178D01*
X189841419Y-119110564D01*
X189640005Y-119070500D01*
X189640000Y-119070500D01*
X189572000Y-119056974D01*
X189504000Y-119070500D01*
X186623949Y-119070500D01*
X186594989Y-118924910D01*
X186484480Y-118759520D01*
X186357012Y-118674349D01*
X186324436Y-118510581D01*
X186297334Y-118470019D01*
X186239269Y-118383120D01*
X186171822Y-118282178D01*
X186114171Y-118243657D01*
X186066000Y-118195486D01*
X186066000Y-117930979D01*
X185928983Y-117600191D01*
X185675809Y-117347017D01*
X185345021Y-117210000D01*
X184986979Y-117210000D01*
X184656191Y-117347017D01*
X184403017Y-117600191D01*
X184266000Y-117930979D01*
X184266000Y-118075613D01*
X184083456Y-118000000D01*
X183359000Y-118000000D01*
X183234000Y-118125000D01*
X183234000Y-118850000D01*
X184359000Y-118850000D01*
X184484000Y-118725000D01*
X184484000Y-118700792D01*
X184656191Y-118872983D01*
X184759198Y-118915650D01*
X184753011Y-118924910D01*
X184714205Y-119120000D01*
X184714205Y-120320000D01*
X184753011Y-120515090D01*
X184863520Y-120680480D01*
X185028910Y-120790989D01*
X185174757Y-120820000D01*
X185028910Y-120849011D01*
X184863520Y-120959520D01*
X184753011Y-121124910D01*
X184714205Y-121320000D01*
X184714205Y-121723000D01*
X184458587Y-121723000D01*
X184454989Y-121704910D01*
X184344480Y-121539520D01*
X184179090Y-121429011D01*
X183984000Y-121390205D01*
X182284000Y-121390205D01*
X182088910Y-121429011D01*
X181923520Y-121539520D01*
X181813011Y-121704910D01*
X181774205Y-121900000D01*
X181774205Y-122590000D01*
X181075000Y-122590000D01*
X181075000Y-119175000D01*
X181784000Y-119175000D01*
X181784000Y-119499456D01*
X181860120Y-119683227D01*
X182000773Y-119823879D01*
X182184544Y-119900000D01*
X182909000Y-119900000D01*
X183034000Y-119775000D01*
X183034000Y-119050000D01*
X183234000Y-119050000D01*
X183234000Y-119775000D01*
X183359000Y-119900000D01*
X184083456Y-119900000D01*
X184267227Y-119823879D01*
X184407880Y-119683227D01*
X184484000Y-119499456D01*
X184484000Y-119175000D01*
X184359000Y-119050000D01*
X183234000Y-119050000D01*
X183034000Y-119050000D01*
X181909000Y-119050000D01*
X181784000Y-119175000D01*
X181075000Y-119175000D01*
X181075000Y-118400544D01*
X181784000Y-118400544D01*
X181784000Y-118725000D01*
X181909000Y-118850000D01*
X183034000Y-118850000D01*
X183034000Y-118125000D01*
X182909000Y-118000000D01*
X182184544Y-118000000D01*
X182000773Y-118076121D01*
X181860120Y-118216773D01*
X181784000Y-118400544D01*
X181075000Y-118400544D01*
X181075000Y-117557834D01*
X181319500Y-117630000D01*
X181669500Y-117630000D01*
X181669500Y-114130000D01*
X181869500Y-114130000D01*
X181869500Y-117630000D01*
X182219500Y-117630000D01*
X182632840Y-117507999D01*
X182968028Y-117237107D01*
X183174036Y-116858564D01*
X183185815Y-116800134D01*
X183164428Y-116762412D01*
X183219500Y-116629456D01*
X183219500Y-116392346D01*
X183748575Y-116392346D01*
X183818615Y-116595996D01*
X184276100Y-116763935D01*
X184763028Y-116744018D01*
X185120385Y-116595996D01*
X185190425Y-116392346D01*
X184469500Y-115671421D01*
X183748575Y-116392346D01*
X183219500Y-116392346D01*
X183219500Y-116155000D01*
X183094500Y-116030000D01*
X183080738Y-116030000D01*
X182971896Y-115830000D01*
X183094500Y-115830000D01*
X183219500Y-115705000D01*
X183219500Y-115230544D01*
X183146788Y-115055000D01*
X183219500Y-114879456D01*
X183219500Y-114255000D01*
X183094500Y-114130000D01*
X181869500Y-114130000D01*
X181669500Y-114130000D01*
X181649500Y-114130000D01*
X181649500Y-113930000D01*
X181669500Y-113930000D01*
X181669500Y-112130000D01*
X181869500Y-112130000D01*
X181869500Y-113930000D01*
X183094500Y-113930000D01*
X183219500Y-113805000D01*
X183219500Y-113180544D01*
X183157143Y-113030000D01*
X183219500Y-112879456D01*
X183219500Y-112255000D01*
X183094500Y-112130000D01*
X181869500Y-112130000D01*
X181669500Y-112130000D01*
X181649500Y-112130000D01*
X181649500Y-111930000D01*
X181669500Y-111930000D01*
X181669500Y-108430000D01*
X181869500Y-108430000D01*
X181869500Y-111930000D01*
X183094500Y-111930000D01*
X183219500Y-111805000D01*
X183219500Y-111180544D01*
X183146788Y-111005000D01*
X183219500Y-110829456D01*
X183219500Y-110355000D01*
X183094500Y-110230000D01*
X182971896Y-110230000D01*
X183080738Y-110030000D01*
X183094500Y-110030000D01*
X183219500Y-109905000D01*
X183219500Y-109667654D01*
X183748575Y-109667654D01*
X184469500Y-110388579D01*
X185190425Y-109667654D01*
X185120385Y-109464004D01*
X184662900Y-109296065D01*
X184175972Y-109315982D01*
X183818615Y-109464004D01*
X183748575Y-109667654D01*
X183219500Y-109667654D01*
X183219500Y-109430544D01*
X183164428Y-109297588D01*
X183185815Y-109259866D01*
X183174036Y-109201436D01*
X182968028Y-108822893D01*
X182632840Y-108552001D01*
X182219500Y-108430000D01*
X181869500Y-108430000D01*
X181669500Y-108430000D01*
X181319500Y-108430000D01*
X181075000Y-108502166D01*
X181075000Y-108016607D01*
X181146273Y-108087879D01*
X181330044Y-108164000D01*
X181829500Y-108164000D01*
X181954500Y-108039000D01*
X181954500Y-107014000D01*
X182154500Y-107014000D01*
X182154500Y-108039000D01*
X182279500Y-108164000D01*
X182778956Y-108164000D01*
X182962727Y-108087879D01*
X183103380Y-107947227D01*
X183179500Y-107763456D01*
X183179500Y-107139000D01*
X183054500Y-107014000D01*
X182154500Y-107014000D01*
X181954500Y-107014000D01*
X181934500Y-107014000D01*
X181934500Y-106814000D01*
X181954500Y-106814000D01*
X181954500Y-106794000D01*
X182154500Y-106794000D01*
X182154500Y-106814000D01*
X183054500Y-106814000D01*
X183179500Y-106689000D01*
X183179500Y-106662000D01*
X183193205Y-106662000D01*
X183193205Y-108222000D01*
X183232011Y-108417090D01*
X183342520Y-108582480D01*
X183507910Y-108692989D01*
X183703000Y-108731795D01*
X184353000Y-108731795D01*
X184548090Y-108692989D01*
X184713480Y-108582480D01*
X184823989Y-108417090D01*
X184862795Y-108222000D01*
X184862795Y-106662000D01*
X184823989Y-106466910D01*
X184713480Y-106301520D01*
X184548090Y-106191011D01*
X184353000Y-106152205D01*
X183703000Y-106152205D01*
X183507910Y-106191011D01*
X183342520Y-106301520D01*
X183232011Y-106466910D01*
X183193205Y-106662000D01*
X183179500Y-106662000D01*
X183179500Y-106064544D01*
X183103380Y-105880773D01*
X182962727Y-105740121D01*
X182778956Y-105664000D01*
X182728743Y-105664000D01*
X182874590Y-105634989D01*
X183039980Y-105524480D01*
X183150489Y-105359090D01*
X183189295Y-105164000D01*
X183189295Y-105104500D01*
X183193205Y-105104500D01*
X183193205Y-105522000D01*
X183232011Y-105717090D01*
X183342520Y-105882480D01*
X183507910Y-105992989D01*
X183703000Y-106031795D01*
X184353000Y-106031795D01*
X184504458Y-106001668D01*
X184553544Y-106022000D01*
X184753000Y-106022000D01*
X184878000Y-105897000D01*
X184878000Y-104842000D01*
X184862795Y-104842000D01*
X184862795Y-104642000D01*
X184878000Y-104642000D01*
X184878000Y-104622000D01*
X185078000Y-104622000D01*
X185078000Y-104642000D01*
X185093205Y-104642000D01*
X185093205Y-104842000D01*
X185078000Y-104842000D01*
X185078000Y-105897000D01*
X185203000Y-106022000D01*
X185402456Y-106022000D01*
X185451542Y-106001668D01*
X185603000Y-106031795D01*
X186253000Y-106031795D01*
X186448090Y-105992989D01*
X186613480Y-105882480D01*
X186723989Y-105717090D01*
X186762795Y-105522000D01*
X186762795Y-105432500D01*
X186782000Y-105432500D01*
X186850000Y-105446026D01*
X186918000Y-105432500D01*
X186918005Y-105432500D01*
X187119419Y-105392436D01*
X187347822Y-105239822D01*
X187386343Y-105182171D01*
X187738015Y-104830500D01*
X189184074Y-104830500D01*
X189245317Y-104978353D01*
X189661647Y-105394683D01*
X190205610Y-105620000D01*
X190794390Y-105620000D01*
X191338353Y-105394683D01*
X191546251Y-105186785D01*
X192134636Y-105186785D01*
X192235887Y-105416898D01*
X192785744Y-105627420D01*
X193374309Y-105611497D01*
X193844113Y-105416898D01*
X193945364Y-105186785D01*
X193040000Y-104281421D01*
X192134636Y-105186785D01*
X191546251Y-105186785D01*
X191754683Y-104978353D01*
X191767977Y-104946258D01*
X191993215Y-105045364D01*
X192898579Y-104140000D01*
X192884437Y-104125858D01*
X193025858Y-103984437D01*
X193040000Y-103998579D01*
X193054143Y-103984437D01*
X193195564Y-104125858D01*
G04 #@! TD*
M02*
