G04 #@! TF.GenerationSoftware,KiCad,Pcbnew,(5.0.0)*
G04 #@! TF.CreationDate,2018-08-19T14:30:57-03:00*
G04 #@! TF.ProjectId,franzininho-tiny841,6672616E7A696E696E686F2D74696E79,rev?*
G04 #@! TF.SameCoordinates,Original*
G04 #@! TF.FileFunction,Legend,Top*
G04 #@! TF.FilePolarity,Positive*
%FSLAX46Y46*%
G04 Gerber Fmt 4.6, Leading zero omitted, Abs format (unit mm)*
G04 Created by KiCad (PCBNEW (5.0.0)) date 08/19/18 14:30:57*
%MOMM*%
%LPD*%
G01*
G04 APERTURE LIST*
%ADD10C,0.200000*%
%ADD11C,0.010000*%
%ADD12C,0.120000*%
%ADD13C,0.150000*%
G04 APERTURE END LIST*
D10*
X190373000Y-119443500D02*
X188976000Y-119443500D01*
X190436500Y-120269000D02*
X190373000Y-119443500D01*
X190436500Y-119443500D02*
X190436500Y-120269000D01*
X209711857Y-115346071D02*
X209711857Y-115917500D01*
X208511857Y-115917500D01*
X208511857Y-112101357D02*
X208511857Y-111872785D01*
X208569000Y-111758500D01*
X208683285Y-111644214D01*
X208911857Y-111587071D01*
X209311857Y-111587071D01*
X209540428Y-111644214D01*
X209654714Y-111758500D01*
X209711857Y-111872785D01*
X209711857Y-112101357D01*
X209654714Y-112215642D01*
X209540428Y-112329928D01*
X209311857Y-112387071D01*
X208911857Y-112387071D01*
X208683285Y-112329928D01*
X208569000Y-112215642D01*
X208511857Y-112101357D01*
X209711857Y-111072785D02*
X208511857Y-111072785D01*
X209711857Y-110387071D01*
X208511857Y-110387071D01*
X181527404Y-121748404D02*
X181146452Y-122015071D01*
X181527404Y-122205547D02*
X180727404Y-122205547D01*
X180727404Y-121900785D01*
X180765500Y-121824595D01*
X180803595Y-121786500D01*
X180879785Y-121748404D01*
X180994071Y-121748404D01*
X181070261Y-121786500D01*
X181108357Y-121824595D01*
X181146452Y-121900785D01*
X181146452Y-122205547D01*
X181108357Y-121405547D02*
X181108357Y-121138880D01*
X181527404Y-121024595D02*
X181527404Y-121405547D01*
X180727404Y-121405547D01*
X180727404Y-121024595D01*
X181489309Y-120719833D02*
X181527404Y-120605547D01*
X181527404Y-120415071D01*
X181489309Y-120338880D01*
X181451214Y-120300785D01*
X181375023Y-120262690D01*
X181298833Y-120262690D01*
X181222642Y-120300785D01*
X181184547Y-120338880D01*
X181146452Y-120415071D01*
X181108357Y-120567452D01*
X181070261Y-120643642D01*
X181032166Y-120681738D01*
X180955976Y-120719833D01*
X180879785Y-120719833D01*
X180803595Y-120681738D01*
X180765500Y-120643642D01*
X180727404Y-120567452D01*
X180727404Y-120376976D01*
X180765500Y-120262690D01*
X181108357Y-119919833D02*
X181108357Y-119653166D01*
X181527404Y-119538880D02*
X181527404Y-119919833D01*
X180727404Y-119919833D01*
X180727404Y-119538880D01*
X180727404Y-119310309D02*
X180727404Y-118853166D01*
X181527404Y-119081738D02*
X180727404Y-119081738D01*
X188285428Y-121872214D02*
X188285428Y-121110309D01*
X188666380Y-121491261D02*
X187904476Y-121491261D01*
X187666380Y-120157928D02*
X187666380Y-120634119D01*
X188142571Y-120681738D01*
X188094952Y-120634119D01*
X188047333Y-120538880D01*
X188047333Y-120300785D01*
X188094952Y-120205547D01*
X188142571Y-120157928D01*
X188237809Y-120110309D01*
X188475904Y-120110309D01*
X188571142Y-120157928D01*
X188618761Y-120205547D01*
X188666380Y-120300785D01*
X188666380Y-120538880D01*
X188618761Y-120634119D01*
X188571142Y-120681738D01*
X187666380Y-119824595D02*
X188666380Y-119491261D01*
X187666380Y-119157928D01*
X194922857Y-119437142D02*
X194922857Y-119322857D01*
X194980000Y-119208571D01*
X195037142Y-119151428D01*
X195151428Y-119094285D01*
X195380000Y-119037142D01*
X195665714Y-119037142D01*
X195894285Y-119094285D01*
X196008571Y-119151428D01*
X196065714Y-119208571D01*
X196122857Y-119322857D01*
X196122857Y-119437142D01*
X196065714Y-119551428D01*
X196008571Y-119608571D01*
X195894285Y-119665714D01*
X195665714Y-119722857D01*
X195380000Y-119722857D01*
X195151428Y-119665714D01*
X195037142Y-119608571D01*
X194980000Y-119551428D01*
X194922857Y-119437142D01*
X198662857Y-119037142D02*
X198662857Y-119722857D01*
X198662857Y-119380000D02*
X197462857Y-119380000D01*
X197634285Y-119494285D01*
X197748571Y-119608571D01*
X197805714Y-119722857D01*
X201202857Y-119310095D02*
X200631428Y-119576761D01*
X201202857Y-119767238D02*
X200002857Y-119767238D01*
X200002857Y-119462476D01*
X200060000Y-119386285D01*
X200117142Y-119348190D01*
X200231428Y-119310095D01*
X200402857Y-119310095D01*
X200517142Y-119348190D01*
X200574285Y-119386285D01*
X200631428Y-119462476D01*
X200631428Y-119767238D01*
X201145714Y-119005333D02*
X201202857Y-118891047D01*
X201202857Y-118700571D01*
X201145714Y-118624380D01*
X201088571Y-118586285D01*
X200974285Y-118548190D01*
X200860000Y-118548190D01*
X200745714Y-118586285D01*
X200688571Y-118624380D01*
X200631428Y-118700571D01*
X200574285Y-118852952D01*
X200517142Y-118929142D01*
X200460000Y-118967238D01*
X200345714Y-119005333D01*
X200231428Y-119005333D01*
X200117142Y-118967238D01*
X200060000Y-118929142D01*
X200002857Y-118852952D01*
X200002857Y-118662476D01*
X200060000Y-118548190D01*
X200002857Y-118319619D02*
X200002857Y-117862476D01*
X201202857Y-118091047D02*
X200002857Y-118091047D01*
X202657142Y-119722857D02*
X202600000Y-119665714D01*
X202542857Y-119551428D01*
X202542857Y-119265714D01*
X202600000Y-119151428D01*
X202657142Y-119094285D01*
X202771428Y-119037142D01*
X202885714Y-119037142D01*
X203057142Y-119094285D01*
X203742857Y-119780000D01*
X203742857Y-119037142D01*
X205082857Y-119780000D02*
X205082857Y-119037142D01*
X205540000Y-119437142D01*
X205540000Y-119265714D01*
X205597142Y-119151428D01*
X205654285Y-119094285D01*
X205768571Y-119037142D01*
X206054285Y-119037142D01*
X206168571Y-119094285D01*
X206225714Y-119151428D01*
X206282857Y-119265714D01*
X206282857Y-119608571D01*
X206225714Y-119722857D01*
X206168571Y-119780000D01*
X208022857Y-119151428D02*
X208822857Y-119151428D01*
X207565714Y-119437142D02*
X208422857Y-119722857D01*
X208422857Y-118980000D01*
X207622857Y-106140285D02*
X207622857Y-106711714D01*
X208194285Y-106768857D01*
X208137142Y-106711714D01*
X208080000Y-106597428D01*
X208080000Y-106311714D01*
X208137142Y-106197428D01*
X208194285Y-106140285D01*
X208308571Y-106083142D01*
X208594285Y-106083142D01*
X208708571Y-106140285D01*
X208765714Y-106197428D01*
X208822857Y-106311714D01*
X208822857Y-106597428D01*
X208765714Y-106711714D01*
X208708571Y-106768857D01*
X205082857Y-106197428D02*
X205082857Y-106426000D01*
X205140000Y-106540285D01*
X205197142Y-106597428D01*
X205368571Y-106711714D01*
X205597142Y-106768857D01*
X206054285Y-106768857D01*
X206168571Y-106711714D01*
X206225714Y-106654571D01*
X206282857Y-106540285D01*
X206282857Y-106311714D01*
X206225714Y-106197428D01*
X206168571Y-106140285D01*
X206054285Y-106083142D01*
X205768571Y-106083142D01*
X205654285Y-106140285D01*
X205597142Y-106197428D01*
X205540000Y-106311714D01*
X205540000Y-106540285D01*
X205597142Y-106654571D01*
X205654285Y-106711714D01*
X205768571Y-106768857D01*
X202542857Y-106826000D02*
X202542857Y-106026000D01*
X203742857Y-106540285D01*
X200517142Y-106540285D02*
X200460000Y-106654571D01*
X200402857Y-106711714D01*
X200288571Y-106768857D01*
X200231428Y-106768857D01*
X200117142Y-106711714D01*
X200060000Y-106654571D01*
X200002857Y-106540285D01*
X200002857Y-106311714D01*
X200060000Y-106197428D01*
X200117142Y-106140285D01*
X200231428Y-106083142D01*
X200288571Y-106083142D01*
X200402857Y-106140285D01*
X200460000Y-106197428D01*
X200517142Y-106311714D01*
X200517142Y-106540285D01*
X200574285Y-106654571D01*
X200631428Y-106711714D01*
X200745714Y-106768857D01*
X200974285Y-106768857D01*
X201088571Y-106711714D01*
X201145714Y-106654571D01*
X201202857Y-106540285D01*
X201202857Y-106311714D01*
X201145714Y-106197428D01*
X201088571Y-106140285D01*
X200974285Y-106083142D01*
X200745714Y-106083142D01*
X200631428Y-106140285D01*
X200574285Y-106197428D01*
X200517142Y-106311714D01*
X198662857Y-106654571D02*
X198662857Y-106426000D01*
X198605714Y-106311714D01*
X198548571Y-106254571D01*
X198377142Y-106140285D01*
X198148571Y-106083142D01*
X197691428Y-106083142D01*
X197577142Y-106140285D01*
X197520000Y-106197428D01*
X197462857Y-106311714D01*
X197462857Y-106540285D01*
X197520000Y-106654571D01*
X197577142Y-106711714D01*
X197691428Y-106768857D01*
X197977142Y-106768857D01*
X198091428Y-106711714D01*
X198148571Y-106654571D01*
X198205714Y-106540285D01*
X198205714Y-106311714D01*
X198148571Y-106197428D01*
X198091428Y-106140285D01*
X197977142Y-106083142D01*
X196122857Y-107162571D02*
X196122857Y-107848285D01*
X196122857Y-107505428D02*
X194922857Y-107505428D01*
X195094285Y-107619714D01*
X195208571Y-107734000D01*
X195265714Y-107848285D01*
X194922857Y-106419714D02*
X194922857Y-106305428D01*
X194980000Y-106191142D01*
X195037142Y-106134000D01*
X195151428Y-106076857D01*
X195380000Y-106019714D01*
X195665714Y-106019714D01*
X195894285Y-106076857D01*
X196008571Y-106134000D01*
X196065714Y-106191142D01*
X196122857Y-106305428D01*
X196122857Y-106419714D01*
X196065714Y-106534000D01*
X196008571Y-106591142D01*
X195894285Y-106648285D01*
X195665714Y-106705428D01*
X195380000Y-106705428D01*
X195151428Y-106648285D01*
X195037142Y-106591142D01*
X194980000Y-106534000D01*
X194922857Y-106419714D01*
X189842857Y-107775238D02*
X191042857Y-107441904D01*
X189842857Y-107108571D01*
X191042857Y-106775238D02*
X189842857Y-106775238D01*
X191042857Y-106299047D02*
X189842857Y-106299047D01*
X191042857Y-105727619D01*
X189842857Y-105727619D01*
D11*
G04 #@! TO.C,G\002A\002A\002A*
G36*
X192441529Y-118632998D02*
X192442980Y-118402490D01*
X192445273Y-118184813D01*
X192448411Y-117985751D01*
X192452393Y-117811089D01*
X192457220Y-117666610D01*
X192462890Y-117558097D01*
X192469404Y-117491337D01*
X192473445Y-117474291D01*
X192498783Y-117429039D01*
X192532661Y-117394696D01*
X192581850Y-117369797D01*
X192653122Y-117352877D01*
X192753248Y-117342473D01*
X192889000Y-117337120D01*
X193067148Y-117335353D01*
X193116200Y-117335300D01*
X193305361Y-117336433D01*
X193450524Y-117340806D01*
X193558461Y-117349884D01*
X193635944Y-117365131D01*
X193689743Y-117388012D01*
X193726630Y-117419990D01*
X193753376Y-117462530D01*
X193758954Y-117474291D01*
X193766319Y-117515800D01*
X193772711Y-117602030D01*
X193778142Y-117727243D01*
X193782621Y-117885703D01*
X193786158Y-118071672D01*
X193788763Y-118279414D01*
X193790447Y-118503192D01*
X193791219Y-118737268D01*
X193791091Y-118975907D01*
X193790070Y-119213370D01*
X193788169Y-119443922D01*
X193785396Y-119661824D01*
X193781762Y-119861341D01*
X193777277Y-120036734D01*
X193771951Y-120182269D01*
X193765794Y-120292206D01*
X193758816Y-120360810D01*
X193753854Y-120380505D01*
X193726602Y-120422549D01*
X193692986Y-120454316D01*
X193645961Y-120477239D01*
X193578480Y-120492756D01*
X193483499Y-120502300D01*
X193353973Y-120507308D01*
X193182856Y-120509216D01*
X193181121Y-120509221D01*
X193181121Y-120145427D01*
X193304482Y-120109503D01*
X193404032Y-120040950D01*
X193469978Y-119944976D01*
X193482096Y-119910370D01*
X193493069Y-119839502D01*
X193496385Y-119746193D01*
X193492856Y-119647022D01*
X193487073Y-119593508D01*
X193487073Y-118427500D01*
X193482688Y-118192550D01*
X193476442Y-118066365D01*
X193463798Y-117963049D01*
X193446432Y-117895647D01*
X193443809Y-117889993D01*
X193404034Y-117832100D01*
X193350930Y-117778077D01*
X193298156Y-117739496D01*
X193259368Y-117727927D01*
X193254669Y-117729761D01*
X193224784Y-117724788D01*
X193218056Y-117716715D01*
X193174680Y-117690606D01*
X193102942Y-117690197D01*
X193015897Y-117711771D01*
X192926597Y-117751610D01*
X192848095Y-117805995D01*
X192824665Y-117828772D01*
X192795900Y-117864403D01*
X192776794Y-117904437D01*
X192764801Y-117960591D01*
X192757375Y-118044582D01*
X192752177Y-118162245D01*
X192742625Y-118427500D01*
X193487073Y-118427500D01*
X193487073Y-119593508D01*
X193483297Y-119558565D01*
X193468520Y-119497401D01*
X193461178Y-119484105D01*
X193446141Y-119447637D01*
X193450853Y-119434813D01*
X193435766Y-119426969D01*
X193380799Y-119421100D01*
X193296863Y-119418229D01*
X193272833Y-119418100D01*
X193078100Y-119418100D01*
X193078100Y-119799100D01*
X193149199Y-119799100D01*
X193196183Y-119794620D01*
X193213085Y-119771060D01*
X193210273Y-119713244D01*
X193209920Y-119710200D01*
X193206341Y-119650858D01*
X193223006Y-119626352D01*
X193272339Y-119621324D01*
X193281844Y-119621300D01*
X193335525Y-119624405D01*
X193355326Y-119643727D01*
X193352236Y-119694282D01*
X193349209Y-119713351D01*
X193313270Y-119816228D01*
X193249329Y-119891537D01*
X193167464Y-119932755D01*
X193077752Y-119933361D01*
X193034408Y-119917076D01*
X192970987Y-119877199D01*
X192926068Y-119837645D01*
X192895413Y-119767525D01*
X192889456Y-119676797D01*
X192907861Y-119589057D01*
X192930181Y-119548025D01*
X192968346Y-119489178D01*
X192965955Y-119457232D01*
X192919199Y-119444758D01*
X192876611Y-119443500D01*
X192817168Y-119448165D01*
X192778476Y-119468256D01*
X192755407Y-119512923D01*
X192747900Y-119559716D01*
X192747900Y-119291100D01*
X193484500Y-119291100D01*
X193484500Y-119087900D01*
X193236850Y-119086755D01*
X193125490Y-119085490D01*
X193058848Y-119082242D01*
X193030850Y-119075949D01*
X193035424Y-119065550D01*
X193055298Y-119055005D01*
X193107746Y-119027215D01*
X193187750Y-118980873D01*
X193280100Y-118924845D01*
X193302948Y-118910607D01*
X193391264Y-118854210D01*
X193444974Y-118813995D01*
X193472681Y-118779430D01*
X193482988Y-118739982D01*
X193484500Y-118688357D01*
X193484500Y-118579900D01*
X192747900Y-118579900D01*
X192747900Y-118757700D01*
X192970150Y-118757857D01*
X193075430Y-118758336D01*
X193136335Y-118760753D01*
X193159290Y-118766853D01*
X193150720Y-118778381D01*
X193117048Y-118797082D01*
X193116200Y-118797522D01*
X193054398Y-118832271D01*
X192970017Y-118883060D01*
X192894172Y-118930715D01*
X192748344Y-119024400D01*
X192747900Y-119291100D01*
X192747900Y-119559716D01*
X192742831Y-119591313D01*
X192736461Y-119693477D01*
X192746704Y-119855666D01*
X192793196Y-119983612D01*
X192875164Y-120076181D01*
X192991834Y-120132238D01*
X193043741Y-120143514D01*
X193181121Y-120145427D01*
X193181121Y-120509221D01*
X193121288Y-120509400D01*
X192931344Y-120508656D01*
X192785425Y-120504659D01*
X192676792Y-120495971D01*
X192598701Y-120481156D01*
X192544412Y-120458777D01*
X192507183Y-120427396D01*
X192480273Y-120385577D01*
X192473445Y-120371310D01*
X192466455Y-120330611D01*
X192460309Y-120244903D01*
X192455008Y-120119970D01*
X192450550Y-119961596D01*
X192446937Y-119775566D01*
X192444167Y-119567662D01*
X192442242Y-119343669D01*
X192441161Y-119109372D01*
X192440923Y-118870553D01*
X192441529Y-118632998D01*
X192441529Y-118632998D01*
G37*
X192441529Y-118632998D02*
X192442980Y-118402490D01*
X192445273Y-118184813D01*
X192448411Y-117985751D01*
X192452393Y-117811089D01*
X192457220Y-117666610D01*
X192462890Y-117558097D01*
X192469404Y-117491337D01*
X192473445Y-117474291D01*
X192498783Y-117429039D01*
X192532661Y-117394696D01*
X192581850Y-117369797D01*
X192653122Y-117352877D01*
X192753248Y-117342473D01*
X192889000Y-117337120D01*
X193067148Y-117335353D01*
X193116200Y-117335300D01*
X193305361Y-117336433D01*
X193450524Y-117340806D01*
X193558461Y-117349884D01*
X193635944Y-117365131D01*
X193689743Y-117388012D01*
X193726630Y-117419990D01*
X193753376Y-117462530D01*
X193758954Y-117474291D01*
X193766319Y-117515800D01*
X193772711Y-117602030D01*
X193778142Y-117727243D01*
X193782621Y-117885703D01*
X193786158Y-118071672D01*
X193788763Y-118279414D01*
X193790447Y-118503192D01*
X193791219Y-118737268D01*
X193791091Y-118975907D01*
X193790070Y-119213370D01*
X193788169Y-119443922D01*
X193785396Y-119661824D01*
X193781762Y-119861341D01*
X193777277Y-120036734D01*
X193771951Y-120182269D01*
X193765794Y-120292206D01*
X193758816Y-120360810D01*
X193753854Y-120380505D01*
X193726602Y-120422549D01*
X193692986Y-120454316D01*
X193645961Y-120477239D01*
X193578480Y-120492756D01*
X193483499Y-120502300D01*
X193353973Y-120507308D01*
X193182856Y-120509216D01*
X193181121Y-120509221D01*
X193181121Y-120145427D01*
X193304482Y-120109503D01*
X193404032Y-120040950D01*
X193469978Y-119944976D01*
X193482096Y-119910370D01*
X193493069Y-119839502D01*
X193496385Y-119746193D01*
X193492856Y-119647022D01*
X193487073Y-119593508D01*
X193487073Y-118427500D01*
X193482688Y-118192550D01*
X193476442Y-118066365D01*
X193463798Y-117963049D01*
X193446432Y-117895647D01*
X193443809Y-117889993D01*
X193404034Y-117832100D01*
X193350930Y-117778077D01*
X193298156Y-117739496D01*
X193259368Y-117727927D01*
X193254669Y-117729761D01*
X193224784Y-117724788D01*
X193218056Y-117716715D01*
X193174680Y-117690606D01*
X193102942Y-117690197D01*
X193015897Y-117711771D01*
X192926597Y-117751610D01*
X192848095Y-117805995D01*
X192824665Y-117828772D01*
X192795900Y-117864403D01*
X192776794Y-117904437D01*
X192764801Y-117960591D01*
X192757375Y-118044582D01*
X192752177Y-118162245D01*
X192742625Y-118427500D01*
X193487073Y-118427500D01*
X193487073Y-119593508D01*
X193483297Y-119558565D01*
X193468520Y-119497401D01*
X193461178Y-119484105D01*
X193446141Y-119447637D01*
X193450853Y-119434813D01*
X193435766Y-119426969D01*
X193380799Y-119421100D01*
X193296863Y-119418229D01*
X193272833Y-119418100D01*
X193078100Y-119418100D01*
X193078100Y-119799100D01*
X193149199Y-119799100D01*
X193196183Y-119794620D01*
X193213085Y-119771060D01*
X193210273Y-119713244D01*
X193209920Y-119710200D01*
X193206341Y-119650858D01*
X193223006Y-119626352D01*
X193272339Y-119621324D01*
X193281844Y-119621300D01*
X193335525Y-119624405D01*
X193355326Y-119643727D01*
X193352236Y-119694282D01*
X193349209Y-119713351D01*
X193313270Y-119816228D01*
X193249329Y-119891537D01*
X193167464Y-119932755D01*
X193077752Y-119933361D01*
X193034408Y-119917076D01*
X192970987Y-119877199D01*
X192926068Y-119837645D01*
X192895413Y-119767525D01*
X192889456Y-119676797D01*
X192907861Y-119589057D01*
X192930181Y-119548025D01*
X192968346Y-119489178D01*
X192965955Y-119457232D01*
X192919199Y-119444758D01*
X192876611Y-119443500D01*
X192817168Y-119448165D01*
X192778476Y-119468256D01*
X192755407Y-119512923D01*
X192747900Y-119559716D01*
X192747900Y-119291100D01*
X193484500Y-119291100D01*
X193484500Y-119087900D01*
X193236850Y-119086755D01*
X193125490Y-119085490D01*
X193058848Y-119082242D01*
X193030850Y-119075949D01*
X193035424Y-119065550D01*
X193055298Y-119055005D01*
X193107746Y-119027215D01*
X193187750Y-118980873D01*
X193280100Y-118924845D01*
X193302948Y-118910607D01*
X193391264Y-118854210D01*
X193444974Y-118813995D01*
X193472681Y-118779430D01*
X193482988Y-118739982D01*
X193484500Y-118688357D01*
X193484500Y-118579900D01*
X192747900Y-118579900D01*
X192747900Y-118757700D01*
X192970150Y-118757857D01*
X193075430Y-118758336D01*
X193136335Y-118760753D01*
X193159290Y-118766853D01*
X193150720Y-118778381D01*
X193117048Y-118797082D01*
X193116200Y-118797522D01*
X193054398Y-118832271D01*
X192970017Y-118883060D01*
X192894172Y-118930715D01*
X192748344Y-119024400D01*
X192747900Y-119291100D01*
X192747900Y-119559716D01*
X192742831Y-119591313D01*
X192736461Y-119693477D01*
X192746704Y-119855666D01*
X192793196Y-119983612D01*
X192875164Y-120076181D01*
X192991834Y-120132238D01*
X193043741Y-120143514D01*
X193181121Y-120145427D01*
X193181121Y-120509221D01*
X193121288Y-120509400D01*
X192931344Y-120508656D01*
X192785425Y-120504659D01*
X192676792Y-120495971D01*
X192598701Y-120481156D01*
X192544412Y-120458777D01*
X192507183Y-120427396D01*
X192480273Y-120385577D01*
X192473445Y-120371310D01*
X192466455Y-120330611D01*
X192460309Y-120244903D01*
X192455008Y-120119970D01*
X192450550Y-119961596D01*
X192446937Y-119775566D01*
X192444167Y-119567662D01*
X192442242Y-119343669D01*
X192441161Y-119109372D01*
X192440923Y-118870553D01*
X192441529Y-118632998D01*
G36*
X192895684Y-118081647D02*
X192947926Y-118000622D01*
X193017379Y-117937639D01*
X193047087Y-117921825D01*
X193110996Y-117903634D01*
X193168177Y-117914648D01*
X193202061Y-117930629D01*
X193275974Y-117989761D01*
X193332303Y-118072460D01*
X193357260Y-118157856D01*
X193357500Y-118165889D01*
X193352487Y-118187242D01*
X193331272Y-118200731D01*
X193284589Y-118208109D01*
X193203172Y-118211134D01*
X193116200Y-118211600D01*
X193004053Y-118210834D01*
X192933279Y-118207213D01*
X192894459Y-118198754D01*
X192878173Y-118183472D01*
X192874994Y-118160800D01*
X192895684Y-118081647D01*
X192895684Y-118081647D01*
G37*
X192895684Y-118081647D02*
X192947926Y-118000622D01*
X193017379Y-117937639D01*
X193047087Y-117921825D01*
X193110996Y-117903634D01*
X193168177Y-117914648D01*
X193202061Y-117930629D01*
X193275974Y-117989761D01*
X193332303Y-118072460D01*
X193357260Y-118157856D01*
X193357500Y-118165889D01*
X193352487Y-118187242D01*
X193331272Y-118200731D01*
X193284589Y-118208109D01*
X193203172Y-118211134D01*
X193116200Y-118211600D01*
X193004053Y-118210834D01*
X192933279Y-118207213D01*
X192894459Y-118198754D01*
X192878173Y-118183472D01*
X192874994Y-118160800D01*
X192895684Y-118081647D01*
D12*
G04 #@! TO.C,C1*
X181204500Y-105164000D02*
X181204500Y-106164000D01*
X182904500Y-106164000D02*
X182904500Y-105164000D01*
G04 #@! TO.C,C2*
X192253500Y-113081500D02*
X192253500Y-114081500D01*
X193953500Y-114081500D02*
X193953500Y-113081500D01*
G04 #@! TO.C,D1*
X186842000Y-117133000D02*
X189992000Y-117133000D01*
X186842000Y-118833000D02*
X189992000Y-118833000D01*
X186842000Y-117133000D02*
X186842000Y-118833000D01*
G04 #@! TO.C,D2*
X186842000Y-110529000D02*
X186842000Y-112229000D01*
X186842000Y-112229000D02*
X189992000Y-112229000D01*
X186842000Y-110529000D02*
X189992000Y-110529000D01*
G04 #@! TO.C,D3*
X191306000Y-110093000D02*
X187456000Y-110093000D01*
X191306000Y-108093000D02*
X187456000Y-108093000D01*
X191306000Y-110093000D02*
X191306000Y-108093000D01*
G04 #@! TO.C,R1*
X189265000Y-113837000D02*
X188265000Y-113837000D01*
X188265000Y-112477000D02*
X189265000Y-112477000D01*
G04 #@! TO.C,R2*
X188265000Y-115525000D02*
X189265000Y-115525000D01*
X189265000Y-116885000D02*
X188265000Y-116885000D01*
G04 #@! TO.C,R3*
X189265000Y-115361000D02*
X188265000Y-115361000D01*
X188265000Y-114001000D02*
X189265000Y-114001000D01*
G04 #@! TO.C,R4*
X206420000Y-110858500D02*
X206420000Y-111858500D01*
X205060000Y-111858500D02*
X205060000Y-110858500D01*
G04 #@! TO.C,R5*
X206420000Y-115260500D02*
X206420000Y-116260500D01*
X205060000Y-116260500D02*
X205060000Y-115260500D01*
G04 #@! TO.C,R6*
X186354000Y-120320000D02*
X186354000Y-121320000D01*
X184994000Y-121320000D02*
X184994000Y-120320000D01*
G04 #@! TO.C,U1*
X186588000Y-106992000D02*
X186588000Y-104542000D01*
X183368000Y-105192000D02*
X183368000Y-106992000D01*
D13*
G04 #@! TO.C,U2*
X195072000Y-114300000D02*
X194437000Y-114300000D01*
X195072000Y-113030000D02*
X195072000Y-114300000D01*
X194437000Y-113030000D02*
X195072000Y-113030000D01*
X194437000Y-111252000D02*
X204597000Y-111252000D01*
X194437000Y-116078000D02*
X194437000Y-111252000D01*
X204597000Y-116078000D02*
X194437000Y-116078000D01*
X204597000Y-111252000D02*
X204597000Y-116078000D01*
D12*
G04 #@! TO.C,J1*
X184769500Y-109130000D02*
X184769500Y-109580000D01*
X182919500Y-109130000D02*
X184769500Y-109130000D01*
X180369500Y-116930000D02*
X180619500Y-116930000D01*
X180369500Y-109130000D02*
X180619500Y-109130000D01*
X182919500Y-116930000D02*
X184769500Y-116930000D01*
X184769500Y-116930000D02*
X184769500Y-116480000D01*
X185319500Y-111330000D02*
X185319500Y-111780000D01*
X185319500Y-111330000D02*
X184869500Y-111330000D01*
G04 #@! TO.C,SW1*
X182034000Y-119000000D02*
X181734000Y-119000000D01*
X181734000Y-119000000D02*
X181734000Y-122300000D01*
X181734000Y-122300000D02*
X182034000Y-122300000D01*
X184234000Y-119000000D02*
X184534000Y-119000000D01*
X184534000Y-119000000D02*
X184534000Y-122300000D01*
X184534000Y-122300000D02*
X184234000Y-122300000D01*
G04 #@! TO.C,D4*
X206841000Y-113158500D02*
X207941000Y-113158500D01*
X207941000Y-113158500D02*
X207941000Y-110558500D01*
X206841000Y-113158500D02*
X206841000Y-110558500D01*
G04 #@! TO.C,D5*
X206841000Y-117517500D02*
X206841000Y-114917500D01*
X207941000Y-117517500D02*
X207941000Y-114917500D01*
X206841000Y-117517500D02*
X207941000Y-117517500D01*
D11*
G04 #@! TO.C,G\002A\002A\002A*
G36*
X192832184Y-106334147D02*
X192884426Y-106253122D01*
X192953879Y-106190139D01*
X192983587Y-106174325D01*
X193047496Y-106156134D01*
X193104677Y-106167148D01*
X193138561Y-106183129D01*
X193212474Y-106242261D01*
X193268803Y-106324960D01*
X193293760Y-106410356D01*
X193294000Y-106418389D01*
X193288987Y-106439742D01*
X193267772Y-106453231D01*
X193221089Y-106460609D01*
X193139672Y-106463634D01*
X193052700Y-106464100D01*
X192940553Y-106463334D01*
X192869779Y-106459713D01*
X192830959Y-106451254D01*
X192814673Y-106435972D01*
X192811494Y-106413300D01*
X192832184Y-106334147D01*
X192832184Y-106334147D01*
G37*
X192832184Y-106334147D02*
X192884426Y-106253122D01*
X192953879Y-106190139D01*
X192983587Y-106174325D01*
X193047496Y-106156134D01*
X193104677Y-106167148D01*
X193138561Y-106183129D01*
X193212474Y-106242261D01*
X193268803Y-106324960D01*
X193293760Y-106410356D01*
X193294000Y-106418389D01*
X193288987Y-106439742D01*
X193267772Y-106453231D01*
X193221089Y-106460609D01*
X193139672Y-106463634D01*
X193052700Y-106464100D01*
X192940553Y-106463334D01*
X192869779Y-106459713D01*
X192830959Y-106451254D01*
X192814673Y-106435972D01*
X192811494Y-106413300D01*
X192832184Y-106334147D01*
G36*
X192378029Y-106885498D02*
X192379480Y-106654990D01*
X192381773Y-106437313D01*
X192384911Y-106238251D01*
X192388893Y-106063589D01*
X192393720Y-105919110D01*
X192399390Y-105810597D01*
X192405904Y-105743837D01*
X192409945Y-105726791D01*
X192435283Y-105681539D01*
X192469161Y-105647196D01*
X192518350Y-105622297D01*
X192589622Y-105605377D01*
X192689748Y-105594973D01*
X192825500Y-105589620D01*
X193003648Y-105587853D01*
X193052700Y-105587800D01*
X193241861Y-105588933D01*
X193387024Y-105593306D01*
X193494961Y-105602384D01*
X193572444Y-105617631D01*
X193626243Y-105640512D01*
X193663130Y-105672490D01*
X193689876Y-105715030D01*
X193695454Y-105726791D01*
X193702819Y-105768300D01*
X193709211Y-105854530D01*
X193714642Y-105979743D01*
X193719121Y-106138203D01*
X193722658Y-106324172D01*
X193725263Y-106531914D01*
X193726947Y-106755692D01*
X193727719Y-106989768D01*
X193727591Y-107228407D01*
X193726570Y-107465870D01*
X193724669Y-107696422D01*
X193721896Y-107914324D01*
X193718262Y-108113841D01*
X193713777Y-108289234D01*
X193708451Y-108434769D01*
X193702294Y-108544706D01*
X193695316Y-108613310D01*
X193690354Y-108633005D01*
X193663102Y-108675049D01*
X193629486Y-108706816D01*
X193582461Y-108729739D01*
X193514980Y-108745256D01*
X193419999Y-108754800D01*
X193290473Y-108759808D01*
X193119356Y-108761716D01*
X193117621Y-108761721D01*
X193117621Y-108397927D01*
X193240982Y-108362003D01*
X193340532Y-108293450D01*
X193406478Y-108197476D01*
X193418596Y-108162870D01*
X193429569Y-108092002D01*
X193432885Y-107998693D01*
X193429356Y-107899522D01*
X193423573Y-107846008D01*
X193423573Y-106680000D01*
X193419188Y-106445050D01*
X193412942Y-106318865D01*
X193400298Y-106215549D01*
X193382932Y-106148147D01*
X193380309Y-106142493D01*
X193340534Y-106084600D01*
X193287430Y-106030577D01*
X193234656Y-105991996D01*
X193195868Y-105980427D01*
X193191169Y-105982261D01*
X193161284Y-105977288D01*
X193154556Y-105969215D01*
X193111180Y-105943106D01*
X193039442Y-105942697D01*
X192952397Y-105964271D01*
X192863097Y-106004110D01*
X192784595Y-106058495D01*
X192761165Y-106081272D01*
X192732400Y-106116903D01*
X192713294Y-106156937D01*
X192701301Y-106213091D01*
X192693875Y-106297082D01*
X192688677Y-106414745D01*
X192679125Y-106680000D01*
X193423573Y-106680000D01*
X193423573Y-107846008D01*
X193419797Y-107811065D01*
X193405020Y-107749901D01*
X193397678Y-107736605D01*
X193382641Y-107700137D01*
X193387353Y-107687313D01*
X193372266Y-107679469D01*
X193317299Y-107673600D01*
X193233363Y-107670729D01*
X193209333Y-107670600D01*
X193014600Y-107670600D01*
X193014600Y-108051600D01*
X193085699Y-108051600D01*
X193132683Y-108047120D01*
X193149585Y-108023560D01*
X193146773Y-107965744D01*
X193146420Y-107962700D01*
X193142841Y-107903358D01*
X193159506Y-107878852D01*
X193208839Y-107873824D01*
X193218344Y-107873800D01*
X193272025Y-107876905D01*
X193291826Y-107896227D01*
X193288736Y-107946782D01*
X193285709Y-107965851D01*
X193249770Y-108068728D01*
X193185829Y-108144037D01*
X193103964Y-108185255D01*
X193014252Y-108185861D01*
X192970908Y-108169576D01*
X192907487Y-108129699D01*
X192862568Y-108090145D01*
X192831913Y-108020025D01*
X192825956Y-107929297D01*
X192844361Y-107841557D01*
X192866681Y-107800525D01*
X192904846Y-107741678D01*
X192902455Y-107709732D01*
X192855699Y-107697258D01*
X192813111Y-107696000D01*
X192753668Y-107700665D01*
X192714976Y-107720756D01*
X192691907Y-107765423D01*
X192684400Y-107812216D01*
X192684400Y-107543600D01*
X193421000Y-107543600D01*
X193421000Y-107340400D01*
X193173350Y-107339255D01*
X193061990Y-107337990D01*
X192995348Y-107334742D01*
X192967350Y-107328449D01*
X192971924Y-107318050D01*
X192991798Y-107307505D01*
X193044246Y-107279715D01*
X193124250Y-107233373D01*
X193216600Y-107177345D01*
X193239448Y-107163107D01*
X193327764Y-107106710D01*
X193381474Y-107066495D01*
X193409181Y-107031930D01*
X193419488Y-106992482D01*
X193421000Y-106940857D01*
X193421000Y-106832400D01*
X192684400Y-106832400D01*
X192684400Y-107010200D01*
X192906650Y-107010357D01*
X193011930Y-107010836D01*
X193072835Y-107013253D01*
X193095790Y-107019353D01*
X193087220Y-107030881D01*
X193053548Y-107049582D01*
X193052700Y-107050022D01*
X192990898Y-107084771D01*
X192906517Y-107135560D01*
X192830672Y-107183215D01*
X192684844Y-107276900D01*
X192684400Y-107543600D01*
X192684400Y-107812216D01*
X192679331Y-107843813D01*
X192672961Y-107945977D01*
X192683204Y-108108166D01*
X192729696Y-108236112D01*
X192811664Y-108328681D01*
X192928334Y-108384738D01*
X192980241Y-108396014D01*
X193117621Y-108397927D01*
X193117621Y-108761721D01*
X193057788Y-108761900D01*
X192867844Y-108761156D01*
X192721925Y-108757159D01*
X192613292Y-108748471D01*
X192535201Y-108733656D01*
X192480912Y-108711277D01*
X192443683Y-108679896D01*
X192416773Y-108638077D01*
X192409945Y-108623810D01*
X192402955Y-108583111D01*
X192396809Y-108497403D01*
X192391508Y-108372470D01*
X192387050Y-108214096D01*
X192383437Y-108028066D01*
X192380667Y-107820162D01*
X192378742Y-107596169D01*
X192377661Y-107361872D01*
X192377423Y-107123053D01*
X192378029Y-106885498D01*
X192378029Y-106885498D01*
G37*
X192378029Y-106885498D02*
X192379480Y-106654990D01*
X192381773Y-106437313D01*
X192384911Y-106238251D01*
X192388893Y-106063589D01*
X192393720Y-105919110D01*
X192399390Y-105810597D01*
X192405904Y-105743837D01*
X192409945Y-105726791D01*
X192435283Y-105681539D01*
X192469161Y-105647196D01*
X192518350Y-105622297D01*
X192589622Y-105605377D01*
X192689748Y-105594973D01*
X192825500Y-105589620D01*
X193003648Y-105587853D01*
X193052700Y-105587800D01*
X193241861Y-105588933D01*
X193387024Y-105593306D01*
X193494961Y-105602384D01*
X193572444Y-105617631D01*
X193626243Y-105640512D01*
X193663130Y-105672490D01*
X193689876Y-105715030D01*
X193695454Y-105726791D01*
X193702819Y-105768300D01*
X193709211Y-105854530D01*
X193714642Y-105979743D01*
X193719121Y-106138203D01*
X193722658Y-106324172D01*
X193725263Y-106531914D01*
X193726947Y-106755692D01*
X193727719Y-106989768D01*
X193727591Y-107228407D01*
X193726570Y-107465870D01*
X193724669Y-107696422D01*
X193721896Y-107914324D01*
X193718262Y-108113841D01*
X193713777Y-108289234D01*
X193708451Y-108434769D01*
X193702294Y-108544706D01*
X193695316Y-108613310D01*
X193690354Y-108633005D01*
X193663102Y-108675049D01*
X193629486Y-108706816D01*
X193582461Y-108729739D01*
X193514980Y-108745256D01*
X193419999Y-108754800D01*
X193290473Y-108759808D01*
X193119356Y-108761716D01*
X193117621Y-108761721D01*
X193117621Y-108397927D01*
X193240982Y-108362003D01*
X193340532Y-108293450D01*
X193406478Y-108197476D01*
X193418596Y-108162870D01*
X193429569Y-108092002D01*
X193432885Y-107998693D01*
X193429356Y-107899522D01*
X193423573Y-107846008D01*
X193423573Y-106680000D01*
X193419188Y-106445050D01*
X193412942Y-106318865D01*
X193400298Y-106215549D01*
X193382932Y-106148147D01*
X193380309Y-106142493D01*
X193340534Y-106084600D01*
X193287430Y-106030577D01*
X193234656Y-105991996D01*
X193195868Y-105980427D01*
X193191169Y-105982261D01*
X193161284Y-105977288D01*
X193154556Y-105969215D01*
X193111180Y-105943106D01*
X193039442Y-105942697D01*
X192952397Y-105964271D01*
X192863097Y-106004110D01*
X192784595Y-106058495D01*
X192761165Y-106081272D01*
X192732400Y-106116903D01*
X192713294Y-106156937D01*
X192701301Y-106213091D01*
X192693875Y-106297082D01*
X192688677Y-106414745D01*
X192679125Y-106680000D01*
X193423573Y-106680000D01*
X193423573Y-107846008D01*
X193419797Y-107811065D01*
X193405020Y-107749901D01*
X193397678Y-107736605D01*
X193382641Y-107700137D01*
X193387353Y-107687313D01*
X193372266Y-107679469D01*
X193317299Y-107673600D01*
X193233363Y-107670729D01*
X193209333Y-107670600D01*
X193014600Y-107670600D01*
X193014600Y-108051600D01*
X193085699Y-108051600D01*
X193132683Y-108047120D01*
X193149585Y-108023560D01*
X193146773Y-107965744D01*
X193146420Y-107962700D01*
X193142841Y-107903358D01*
X193159506Y-107878852D01*
X193208839Y-107873824D01*
X193218344Y-107873800D01*
X193272025Y-107876905D01*
X193291826Y-107896227D01*
X193288736Y-107946782D01*
X193285709Y-107965851D01*
X193249770Y-108068728D01*
X193185829Y-108144037D01*
X193103964Y-108185255D01*
X193014252Y-108185861D01*
X192970908Y-108169576D01*
X192907487Y-108129699D01*
X192862568Y-108090145D01*
X192831913Y-108020025D01*
X192825956Y-107929297D01*
X192844361Y-107841557D01*
X192866681Y-107800525D01*
X192904846Y-107741678D01*
X192902455Y-107709732D01*
X192855699Y-107697258D01*
X192813111Y-107696000D01*
X192753668Y-107700665D01*
X192714976Y-107720756D01*
X192691907Y-107765423D01*
X192684400Y-107812216D01*
X192684400Y-107543600D01*
X193421000Y-107543600D01*
X193421000Y-107340400D01*
X193173350Y-107339255D01*
X193061990Y-107337990D01*
X192995348Y-107334742D01*
X192967350Y-107328449D01*
X192971924Y-107318050D01*
X192991798Y-107307505D01*
X193044246Y-107279715D01*
X193124250Y-107233373D01*
X193216600Y-107177345D01*
X193239448Y-107163107D01*
X193327764Y-107106710D01*
X193381474Y-107066495D01*
X193409181Y-107031930D01*
X193419488Y-106992482D01*
X193421000Y-106940857D01*
X193421000Y-106832400D01*
X192684400Y-106832400D01*
X192684400Y-107010200D01*
X192906650Y-107010357D01*
X193011930Y-107010836D01*
X193072835Y-107013253D01*
X193095790Y-107019353D01*
X193087220Y-107030881D01*
X193053548Y-107049582D01*
X193052700Y-107050022D01*
X192990898Y-107084771D01*
X192906517Y-107135560D01*
X192830672Y-107183215D01*
X192684844Y-107276900D01*
X192684400Y-107543600D01*
X192684400Y-107812216D01*
X192679331Y-107843813D01*
X192672961Y-107945977D01*
X192683204Y-108108166D01*
X192729696Y-108236112D01*
X192811664Y-108328681D01*
X192928334Y-108384738D01*
X192980241Y-108396014D01*
X193117621Y-108397927D01*
X193117621Y-108761721D01*
X193057788Y-108761900D01*
X192867844Y-108761156D01*
X192721925Y-108757159D01*
X192613292Y-108748471D01*
X192535201Y-108733656D01*
X192480912Y-108711277D01*
X192443683Y-108679896D01*
X192416773Y-108638077D01*
X192409945Y-108623810D01*
X192402955Y-108583111D01*
X192396809Y-108497403D01*
X192391508Y-108372470D01*
X192387050Y-108214096D01*
X192383437Y-108028066D01*
X192380667Y-107820162D01*
X192378742Y-107596169D01*
X192377661Y-107361872D01*
X192377423Y-107123053D01*
X192378029Y-106885498D01*
G36*
X198198718Y-107725025D02*
X198310902Y-107752525D01*
X198374564Y-107800725D01*
X198395157Y-107873812D01*
X198395167Y-107875845D01*
X198369667Y-107961056D01*
X198302195Y-108024540D01*
X198206290Y-108054783D01*
X198183500Y-108055834D01*
X198084722Y-108055834D01*
X198084722Y-107709735D01*
X198198718Y-107725025D01*
X198198718Y-107725025D01*
G37*
X198198718Y-107725025D02*
X198310902Y-107752525D01*
X198374564Y-107800725D01*
X198395157Y-107873812D01*
X198395167Y-107875845D01*
X198369667Y-107961056D01*
X198302195Y-108024540D01*
X198206290Y-108054783D01*
X198183500Y-108055834D01*
X198084722Y-108055834D01*
X198084722Y-107709735D01*
X198198718Y-107725025D01*
G36*
X199473730Y-107859505D02*
X199501885Y-107909742D01*
X199538369Y-108003432D01*
X199541317Y-108011942D01*
X199574182Y-108110409D01*
X199598177Y-108187834D01*
X199608605Y-108228980D01*
X199608722Y-108230664D01*
X199583332Y-108243630D01*
X199518414Y-108251857D01*
X199467611Y-108253389D01*
X199387086Y-108251644D01*
X199335996Y-108247183D01*
X199326500Y-108243696D01*
X199334908Y-108214010D01*
X199356349Y-108147828D01*
X199385152Y-108061907D01*
X199415644Y-107973006D01*
X199442153Y-107897884D01*
X199456956Y-107858278D01*
X199473730Y-107859505D01*
X199473730Y-107859505D01*
G37*
X199473730Y-107859505D02*
X199501885Y-107909742D01*
X199538369Y-108003432D01*
X199541317Y-108011942D01*
X199574182Y-108110409D01*
X199598177Y-108187834D01*
X199608605Y-108228980D01*
X199608722Y-108230664D01*
X199583332Y-108243630D01*
X199518414Y-108251857D01*
X199467611Y-108253389D01*
X199387086Y-108251644D01*
X199335996Y-108247183D01*
X199326500Y-108243696D01*
X199334908Y-108214010D01*
X199356349Y-108147828D01*
X199385152Y-108061907D01*
X199415644Y-107973006D01*
X199442153Y-107897884D01*
X199456956Y-107858278D01*
X199473730Y-107859505D01*
G36*
X208889062Y-107746310D02*
X209000630Y-107795546D01*
X209041555Y-107827741D01*
X209087085Y-107871112D01*
X209114443Y-107911330D01*
X209128252Y-107964084D01*
X209133135Y-108045064D01*
X209133722Y-108140500D01*
X209132647Y-108255282D01*
X209126337Y-108329312D01*
X209110169Y-108378278D01*
X209079522Y-108417869D01*
X209041555Y-108453260D01*
X208933812Y-108517583D01*
X208815293Y-108536450D01*
X208702614Y-108508232D01*
X208671354Y-108489590D01*
X208597825Y-108407534D01*
X208547311Y-108288767D01*
X208527044Y-108150772D01*
X208526945Y-108140500D01*
X208546736Y-107992407D01*
X208600804Y-107874103D01*
X208681188Y-107790427D01*
X208779927Y-107746216D01*
X208889062Y-107746310D01*
X208889062Y-107746310D01*
G37*
X208889062Y-107746310D02*
X209000630Y-107795546D01*
X209041555Y-107827741D01*
X209087085Y-107871112D01*
X209114443Y-107911330D01*
X209128252Y-107964084D01*
X209133135Y-108045064D01*
X209133722Y-108140500D01*
X209132647Y-108255282D01*
X209126337Y-108329312D01*
X209110169Y-108378278D01*
X209079522Y-108417869D01*
X209041555Y-108453260D01*
X208933812Y-108517583D01*
X208815293Y-108536450D01*
X208702614Y-108508232D01*
X208671354Y-108489590D01*
X208597825Y-108407534D01*
X208547311Y-108288767D01*
X208527044Y-108150772D01*
X208526945Y-108140500D01*
X208546736Y-107992407D01*
X208600804Y-107874103D01*
X208681188Y-107790427D01*
X208779927Y-107746216D01*
X208889062Y-107746310D01*
G36*
X209351022Y-107344645D02*
X209436251Y-107413694D01*
X209510812Y-107499541D01*
X209520355Y-107513979D01*
X209543294Y-107553750D01*
X209560088Y-107594514D01*
X209571692Y-107645475D01*
X209579059Y-107715838D01*
X209583143Y-107814807D01*
X209584898Y-107951588D01*
X209585278Y-108135384D01*
X209585278Y-108140500D01*
X209584920Y-108325550D01*
X209583209Y-108463362D01*
X209579193Y-108563139D01*
X209571917Y-108634087D01*
X209560427Y-108685410D01*
X209543770Y-108726312D01*
X209520992Y-108765998D01*
X209520355Y-108767022D01*
X209451306Y-108852251D01*
X209365459Y-108926812D01*
X209351022Y-108936356D01*
X209246611Y-109001278D01*
X203207056Y-109005607D01*
X202626171Y-109005928D01*
X202059701Y-109006053D01*
X201510278Y-109005991D01*
X200980534Y-109005747D01*
X200473100Y-109005329D01*
X199990607Y-109004744D01*
X199535689Y-109003998D01*
X199110975Y-109003099D01*
X198719099Y-109002054D01*
X198362691Y-109000870D01*
X198044383Y-108999553D01*
X197766808Y-108998111D01*
X197532596Y-108996551D01*
X197344380Y-108994880D01*
X197204792Y-108993104D01*
X197116462Y-108991231D01*
X197082243Y-108989327D01*
X196933627Y-108925307D01*
X196813431Y-108813667D01*
X196779942Y-108765525D01*
X196757315Y-108726107D01*
X196740751Y-108685259D01*
X196729308Y-108633795D01*
X196722047Y-108562527D01*
X196718026Y-108462270D01*
X196716306Y-108323836D01*
X196715945Y-108140500D01*
X196716303Y-107955451D01*
X196718013Y-107817639D01*
X196722029Y-107717862D01*
X196729306Y-107646914D01*
X196740795Y-107595591D01*
X196757453Y-107554689D01*
X196780231Y-107515003D01*
X196780867Y-107513979D01*
X196799168Y-107491389D01*
X196814722Y-107491389D01*
X196814722Y-108789612D01*
X197125167Y-108789612D01*
X197125167Y-108281612D01*
X197548500Y-108281612D01*
X197548500Y-108027612D01*
X197125167Y-108027612D01*
X197125167Y-107745389D01*
X197576722Y-107745389D01*
X197576722Y-107491389D01*
X197774278Y-107491389D01*
X197774278Y-108789612D01*
X198084722Y-108789612D01*
X198084722Y-108306085D01*
X198162057Y-108315015D01*
X198204781Y-108328125D01*
X198247686Y-108362955D01*
X198298852Y-108428454D01*
X198366361Y-108533570D01*
X198380779Y-108557236D01*
X198522167Y-108790526D01*
X198845372Y-108783013D01*
X199168578Y-108775500D01*
X199210488Y-108640389D01*
X199252399Y-108505277D01*
X199477071Y-108513389D01*
X199701743Y-108521500D01*
X199740754Y-108655556D01*
X199779764Y-108789612D01*
X199948243Y-108789612D01*
X200037314Y-108788090D01*
X200098380Y-108784137D01*
X200116722Y-108779614D01*
X200107599Y-108751383D01*
X200081984Y-108677505D01*
X200042513Y-108565439D01*
X199991820Y-108422645D01*
X199932542Y-108256580D01*
X199890945Y-108140500D01*
X199827522Y-107963374D01*
X199770985Y-107804703D01*
X199723968Y-107671945D01*
X199689107Y-107572560D01*
X199669035Y-107514006D01*
X199665167Y-107501387D01*
X199639430Y-107496270D01*
X199572155Y-107492665D01*
X199483750Y-107491389D01*
X200257834Y-107491389D01*
X200257834Y-108789612D01*
X200540056Y-108789612D01*
X200540746Y-108345112D01*
X200541437Y-107900612D01*
X201118611Y-108788898D01*
X201443167Y-108789612D01*
X201443167Y-108731234D01*
X201585405Y-108731234D01*
X201599416Y-108766807D01*
X201603093Y-108770797D01*
X201636037Y-108776778D01*
X201716166Y-108781975D01*
X201834225Y-108786062D01*
X201980955Y-108788715D01*
X202139315Y-108789612D01*
X202656722Y-108789612D01*
X202656722Y-108535612D01*
X202346278Y-108535612D01*
X202221527Y-108534399D01*
X202120710Y-108531112D01*
X202055218Y-108526275D01*
X202035834Y-108521314D01*
X202051654Y-108495070D01*
X202095663Y-108430656D01*
X202162683Y-108335428D01*
X202247537Y-108216743D01*
X202345045Y-108081957D01*
X202346278Y-108080262D01*
X202469015Y-107908471D01*
X202558591Y-107775637D01*
X202617795Y-107677201D01*
X202649414Y-107608602D01*
X202656722Y-107572449D01*
X202656722Y-107491389D01*
X202826056Y-107491389D01*
X202826056Y-108789612D01*
X203136500Y-108789612D01*
X203136500Y-107491389D01*
X203390500Y-107491389D01*
X203390500Y-108789612D01*
X203700945Y-108789612D01*
X203701499Y-108359223D01*
X203702054Y-107928834D01*
X203983263Y-108359223D01*
X204264473Y-108789612D01*
X204575834Y-108789612D01*
X204575834Y-107491389D01*
X204858056Y-107491389D01*
X204858056Y-108789612D01*
X205168500Y-108789612D01*
X205168500Y-107491389D01*
X205422500Y-107491389D01*
X205422500Y-108789612D01*
X205732945Y-108789612D01*
X205732945Y-107930889D01*
X206013968Y-108360250D01*
X206294992Y-108789612D01*
X206607834Y-108789612D01*
X206607834Y-107491389D01*
X206890056Y-107491389D01*
X206890056Y-108789612D01*
X207200500Y-108789612D01*
X207200500Y-108281612D01*
X207708500Y-108281612D01*
X207708500Y-108789612D01*
X208018945Y-108789612D01*
X208018945Y-108166720D01*
X208207838Y-108166720D01*
X208228763Y-108338319D01*
X208287083Y-108496352D01*
X208383452Y-108629119D01*
X208424284Y-108665851D01*
X208586443Y-108764194D01*
X208762518Y-108808803D01*
X208955660Y-108800301D01*
X209026518Y-108785236D01*
X209176926Y-108719485D01*
X209305712Y-108608278D01*
X209403549Y-108461252D01*
X209445802Y-108352167D01*
X209478553Y-108156999D01*
X209463989Y-107976486D01*
X209408265Y-107815584D01*
X209317535Y-107679246D01*
X209197953Y-107572428D01*
X209055673Y-107500083D01*
X208896851Y-107467167D01*
X208727640Y-107478635D01*
X208554195Y-107539439D01*
X208485012Y-107578684D01*
X208362894Y-107687538D01*
X208275557Y-107829629D01*
X208223654Y-107993257D01*
X208207838Y-108166720D01*
X208018945Y-108166720D01*
X208018945Y-107491389D01*
X207708500Y-107491389D01*
X207708500Y-107999389D01*
X207200500Y-107999389D01*
X207200500Y-107491389D01*
X206890056Y-107491389D01*
X206607834Y-107491389D01*
X206607834Y-107488440D01*
X206311500Y-107505500D01*
X206311500Y-107922389D01*
X206310009Y-108097088D01*
X206305443Y-108217266D01*
X206297663Y-108284769D01*
X206286531Y-108301444D01*
X206283278Y-108297991D01*
X206258791Y-108261084D01*
X206209451Y-108185909D01*
X206141180Y-108081514D01*
X206059898Y-107956949D01*
X206005885Y-107874047D01*
X205756713Y-107491389D01*
X205422500Y-107491389D01*
X205168500Y-107491389D01*
X204858056Y-107491389D01*
X204575834Y-107491389D01*
X204293611Y-107491389D01*
X204292391Y-108352167D01*
X203728535Y-107491389D01*
X203390500Y-107491389D01*
X203136500Y-107491389D01*
X202826056Y-107491389D01*
X202656722Y-107491389D01*
X201640722Y-107491389D01*
X201640722Y-107743480D01*
X201938821Y-107751490D01*
X202236919Y-107759500D01*
X201910599Y-108194696D01*
X201783590Y-108367193D01*
X201690347Y-108501885D01*
X201628089Y-108603983D01*
X201594036Y-108678695D01*
X201585405Y-108731234D01*
X201443167Y-108731234D01*
X201443167Y-107491389D01*
X201132722Y-107491389D01*
X201131208Y-108323945D01*
X200859346Y-107907667D01*
X200587485Y-107491389D01*
X200257834Y-107491389D01*
X199483750Y-107491389D01*
X199302333Y-107491389D01*
X199247279Y-107639556D01*
X199218946Y-107716548D01*
X199176072Y-107833984D01*
X199123262Y-107979207D01*
X199065119Y-108139564D01*
X199026529Y-108246248D01*
X198971565Y-108395778D01*
X198922330Y-108524906D01*
X198882240Y-108625046D01*
X198854716Y-108687613D01*
X198843903Y-108704859D01*
X198822196Y-108682889D01*
X198777059Y-108623536D01*
X198715818Y-108536745D01*
X198667330Y-108465056D01*
X198597249Y-108364612D01*
X198535417Y-108284818D01*
X198490005Y-108235745D01*
X198472594Y-108225062D01*
X198470467Y-108212755D01*
X198508343Y-108182227D01*
X198525928Y-108171035D01*
X198631340Y-108086146D01*
X198688589Y-107983179D01*
X198705611Y-107850143D01*
X198695882Y-107726486D01*
X198660638Y-107641370D01*
X198590798Y-107579337D01*
X198526945Y-107546054D01*
X198456987Y-107520454D01*
X198373492Y-107504063D01*
X198262689Y-107495172D01*
X198110805Y-107492069D01*
X198091778Y-107492009D01*
X197774278Y-107491389D01*
X197576722Y-107491389D01*
X196814722Y-107491389D01*
X196799168Y-107491389D01*
X196849916Y-107428750D01*
X196935763Y-107354188D01*
X196950201Y-107344645D01*
X197054611Y-107279723D01*
X209246611Y-107279723D01*
X209351022Y-107344645D01*
X209351022Y-107344645D01*
G37*
X209351022Y-107344645D02*
X209436251Y-107413694D01*
X209510812Y-107499541D01*
X209520355Y-107513979D01*
X209543294Y-107553750D01*
X209560088Y-107594514D01*
X209571692Y-107645475D01*
X209579059Y-107715838D01*
X209583143Y-107814807D01*
X209584898Y-107951588D01*
X209585278Y-108135384D01*
X209585278Y-108140500D01*
X209584920Y-108325550D01*
X209583209Y-108463362D01*
X209579193Y-108563139D01*
X209571917Y-108634087D01*
X209560427Y-108685410D01*
X209543770Y-108726312D01*
X209520992Y-108765998D01*
X209520355Y-108767022D01*
X209451306Y-108852251D01*
X209365459Y-108926812D01*
X209351022Y-108936356D01*
X209246611Y-109001278D01*
X203207056Y-109005607D01*
X202626171Y-109005928D01*
X202059701Y-109006053D01*
X201510278Y-109005991D01*
X200980534Y-109005747D01*
X200473100Y-109005329D01*
X199990607Y-109004744D01*
X199535689Y-109003998D01*
X199110975Y-109003099D01*
X198719099Y-109002054D01*
X198362691Y-109000870D01*
X198044383Y-108999553D01*
X197766808Y-108998111D01*
X197532596Y-108996551D01*
X197344380Y-108994880D01*
X197204792Y-108993104D01*
X197116462Y-108991231D01*
X197082243Y-108989327D01*
X196933627Y-108925307D01*
X196813431Y-108813667D01*
X196779942Y-108765525D01*
X196757315Y-108726107D01*
X196740751Y-108685259D01*
X196729308Y-108633795D01*
X196722047Y-108562527D01*
X196718026Y-108462270D01*
X196716306Y-108323836D01*
X196715945Y-108140500D01*
X196716303Y-107955451D01*
X196718013Y-107817639D01*
X196722029Y-107717862D01*
X196729306Y-107646914D01*
X196740795Y-107595591D01*
X196757453Y-107554689D01*
X196780231Y-107515003D01*
X196780867Y-107513979D01*
X196799168Y-107491389D01*
X196814722Y-107491389D01*
X196814722Y-108789612D01*
X197125167Y-108789612D01*
X197125167Y-108281612D01*
X197548500Y-108281612D01*
X197548500Y-108027612D01*
X197125167Y-108027612D01*
X197125167Y-107745389D01*
X197576722Y-107745389D01*
X197576722Y-107491389D01*
X197774278Y-107491389D01*
X197774278Y-108789612D01*
X198084722Y-108789612D01*
X198084722Y-108306085D01*
X198162057Y-108315015D01*
X198204781Y-108328125D01*
X198247686Y-108362955D01*
X198298852Y-108428454D01*
X198366361Y-108533570D01*
X198380779Y-108557236D01*
X198522167Y-108790526D01*
X198845372Y-108783013D01*
X199168578Y-108775500D01*
X199210488Y-108640389D01*
X199252399Y-108505277D01*
X199477071Y-108513389D01*
X199701743Y-108521500D01*
X199740754Y-108655556D01*
X199779764Y-108789612D01*
X199948243Y-108789612D01*
X200037314Y-108788090D01*
X200098380Y-108784137D01*
X200116722Y-108779614D01*
X200107599Y-108751383D01*
X200081984Y-108677505D01*
X200042513Y-108565439D01*
X199991820Y-108422645D01*
X199932542Y-108256580D01*
X199890945Y-108140500D01*
X199827522Y-107963374D01*
X199770985Y-107804703D01*
X199723968Y-107671945D01*
X199689107Y-107572560D01*
X199669035Y-107514006D01*
X199665167Y-107501387D01*
X199639430Y-107496270D01*
X199572155Y-107492665D01*
X199483750Y-107491389D01*
X200257834Y-107491389D01*
X200257834Y-108789612D01*
X200540056Y-108789612D01*
X200540746Y-108345112D01*
X200541437Y-107900612D01*
X201118611Y-108788898D01*
X201443167Y-108789612D01*
X201443167Y-108731234D01*
X201585405Y-108731234D01*
X201599416Y-108766807D01*
X201603093Y-108770797D01*
X201636037Y-108776778D01*
X201716166Y-108781975D01*
X201834225Y-108786062D01*
X201980955Y-108788715D01*
X202139315Y-108789612D01*
X202656722Y-108789612D01*
X202656722Y-108535612D01*
X202346278Y-108535612D01*
X202221527Y-108534399D01*
X202120710Y-108531112D01*
X202055218Y-108526275D01*
X202035834Y-108521314D01*
X202051654Y-108495070D01*
X202095663Y-108430656D01*
X202162683Y-108335428D01*
X202247537Y-108216743D01*
X202345045Y-108081957D01*
X202346278Y-108080262D01*
X202469015Y-107908471D01*
X202558591Y-107775637D01*
X202617795Y-107677201D01*
X202649414Y-107608602D01*
X202656722Y-107572449D01*
X202656722Y-107491389D01*
X202826056Y-107491389D01*
X202826056Y-108789612D01*
X203136500Y-108789612D01*
X203136500Y-107491389D01*
X203390500Y-107491389D01*
X203390500Y-108789612D01*
X203700945Y-108789612D01*
X203701499Y-108359223D01*
X203702054Y-107928834D01*
X203983263Y-108359223D01*
X204264473Y-108789612D01*
X204575834Y-108789612D01*
X204575834Y-107491389D01*
X204858056Y-107491389D01*
X204858056Y-108789612D01*
X205168500Y-108789612D01*
X205168500Y-107491389D01*
X205422500Y-107491389D01*
X205422500Y-108789612D01*
X205732945Y-108789612D01*
X205732945Y-107930889D01*
X206013968Y-108360250D01*
X206294992Y-108789612D01*
X206607834Y-108789612D01*
X206607834Y-107491389D01*
X206890056Y-107491389D01*
X206890056Y-108789612D01*
X207200500Y-108789612D01*
X207200500Y-108281612D01*
X207708500Y-108281612D01*
X207708500Y-108789612D01*
X208018945Y-108789612D01*
X208018945Y-108166720D01*
X208207838Y-108166720D01*
X208228763Y-108338319D01*
X208287083Y-108496352D01*
X208383452Y-108629119D01*
X208424284Y-108665851D01*
X208586443Y-108764194D01*
X208762518Y-108808803D01*
X208955660Y-108800301D01*
X209026518Y-108785236D01*
X209176926Y-108719485D01*
X209305712Y-108608278D01*
X209403549Y-108461252D01*
X209445802Y-108352167D01*
X209478553Y-108156999D01*
X209463989Y-107976486D01*
X209408265Y-107815584D01*
X209317535Y-107679246D01*
X209197953Y-107572428D01*
X209055673Y-107500083D01*
X208896851Y-107467167D01*
X208727640Y-107478635D01*
X208554195Y-107539439D01*
X208485012Y-107578684D01*
X208362894Y-107687538D01*
X208275557Y-107829629D01*
X208223654Y-107993257D01*
X208207838Y-108166720D01*
X208018945Y-108166720D01*
X208018945Y-107491389D01*
X207708500Y-107491389D01*
X207708500Y-107999389D01*
X207200500Y-107999389D01*
X207200500Y-107491389D01*
X206890056Y-107491389D01*
X206607834Y-107491389D01*
X206607834Y-107488440D01*
X206311500Y-107505500D01*
X206311500Y-107922389D01*
X206310009Y-108097088D01*
X206305443Y-108217266D01*
X206297663Y-108284769D01*
X206286531Y-108301444D01*
X206283278Y-108297991D01*
X206258791Y-108261084D01*
X206209451Y-108185909D01*
X206141180Y-108081514D01*
X206059898Y-107956949D01*
X206005885Y-107874047D01*
X205756713Y-107491389D01*
X205422500Y-107491389D01*
X205168500Y-107491389D01*
X204858056Y-107491389D01*
X204575834Y-107491389D01*
X204293611Y-107491389D01*
X204292391Y-108352167D01*
X203728535Y-107491389D01*
X203390500Y-107491389D01*
X203136500Y-107491389D01*
X202826056Y-107491389D01*
X202656722Y-107491389D01*
X201640722Y-107491389D01*
X201640722Y-107743480D01*
X201938821Y-107751490D01*
X202236919Y-107759500D01*
X201910599Y-108194696D01*
X201783590Y-108367193D01*
X201690347Y-108501885D01*
X201628089Y-108603983D01*
X201594036Y-108678695D01*
X201585405Y-108731234D01*
X201443167Y-108731234D01*
X201443167Y-107491389D01*
X201132722Y-107491389D01*
X201131208Y-108323945D01*
X200859346Y-107907667D01*
X200587485Y-107491389D01*
X200257834Y-107491389D01*
X199483750Y-107491389D01*
X199302333Y-107491389D01*
X199247279Y-107639556D01*
X199218946Y-107716548D01*
X199176072Y-107833984D01*
X199123262Y-107979207D01*
X199065119Y-108139564D01*
X199026529Y-108246248D01*
X198971565Y-108395778D01*
X198922330Y-108524906D01*
X198882240Y-108625046D01*
X198854716Y-108687613D01*
X198843903Y-108704859D01*
X198822196Y-108682889D01*
X198777059Y-108623536D01*
X198715818Y-108536745D01*
X198667330Y-108465056D01*
X198597249Y-108364612D01*
X198535417Y-108284818D01*
X198490005Y-108235745D01*
X198472594Y-108225062D01*
X198470467Y-108212755D01*
X198508343Y-108182227D01*
X198525928Y-108171035D01*
X198631340Y-108086146D01*
X198688589Y-107983179D01*
X198705611Y-107850143D01*
X198695882Y-107726486D01*
X198660638Y-107641370D01*
X198590798Y-107579337D01*
X198526945Y-107546054D01*
X198456987Y-107520454D01*
X198373492Y-107504063D01*
X198262689Y-107495172D01*
X198110805Y-107492069D01*
X198091778Y-107492009D01*
X197774278Y-107491389D01*
X197576722Y-107491389D01*
X196814722Y-107491389D01*
X196799168Y-107491389D01*
X196849916Y-107428750D01*
X196935763Y-107354188D01*
X196950201Y-107344645D01*
X197054611Y-107279723D01*
X209246611Y-107279723D01*
X209351022Y-107344645D01*
G04 #@! TD*
M02*
