M48
;DRILL file {KiCad (5.0.0)} date 08/19/18 14:31:14
;FORMAT={2:4/ absolute / inch / suppress leading zeros}
FMAT,2
INCH,TZ
T1C0.0157
T2C0.0236
T3C0.0335
T4C0.0394
%
G90
G05
M72
T1
X72900Y-46500
X73750Y-48050
X74480Y-42163
X75425Y-44839
X75850Y-46075
X78000Y-46850
T3
X72626Y-43516
X72626Y-45484
T4
X75000Y-48000
X76000Y-48000
X77000Y-48000
X78000Y-48000
X79000Y-48000
X80000Y-48000
X81000Y-48000
X82000Y-48000
X75000Y-41000
X76000Y-41000
X77000Y-41000
X78000Y-41000
X79000Y-41000
X80000Y-41000
X81000Y-41000
X82000Y-41000
T2
X71425Y-43122G85X71701Y-43122
G05
X71701Y-45878G85X71425Y-45878
G05
T0
M30
