G04 #@! TF.GenerationSoftware,KiCad,Pcbnew,(5.0.0)*
G04 #@! TF.CreationDate,2018-08-19T14:30:57-03:00*
G04 #@! TF.ProjectId,franzininho-tiny841,6672616E7A696E696E686F2D74696E79,rev?*
G04 #@! TF.SameCoordinates,Original*
G04 #@! TF.FileFunction,Copper,L2,Bot,Signal*
G04 #@! TF.FilePolarity,Positive*
%FSLAX46Y46*%
G04 Gerber Fmt 4.6, Leading zero omitted, Abs format (unit mm)*
G04 Created by KiCad (PCBNEW (5.0.0)) date 08/19/18 14:30:57*
%MOMM*%
%LPD*%
G01*
G04 APERTURE LIST*
G04 #@! TA.AperFunction,ComponentPad*
%ADD10C,1.450000*%
G04 #@! TD*
G04 #@! TA.AperFunction,ComponentPad*
%ADD11O,1.900000X1.200000*%
G04 #@! TD*
G04 #@! TA.AperFunction,ComponentPad*
%ADD12C,1.960000*%
G04 #@! TD*
G04 #@! TA.AperFunction,ViaPad*
%ADD13C,0.800000*%
G04 #@! TD*
G04 #@! TA.AperFunction,Conductor*
%ADD14C,0.381000*%
G04 #@! TD*
G04 #@! TA.AperFunction,Conductor*
%ADD15C,0.250000*%
G04 #@! TD*
G04 #@! TA.AperFunction,Conductor*
%ADD16C,0.254000*%
G04 #@! TD*
G04 #@! TA.AperFunction,Conductor*
%ADD17C,0.200000*%
G04 #@! TD*
G04 APERTURE END LIST*
D10*
G04 #@! TO.P,J1,6*
G04 #@! TO.N,GNDREF*
X184469500Y-110530000D03*
X184469500Y-115530000D03*
D11*
X181769500Y-109530000D03*
X181769500Y-116530000D03*
G04 #@! TD*
D12*
G04 #@! TO.P,J2,8*
G04 #@! TO.N,PA5*
X208280000Y-104140000D03*
G04 #@! TO.P,J2,7*
G04 #@! TO.N,PA4*
X205740000Y-104140000D03*
G04 #@! TO.P,J2,6*
G04 #@! TO.N,PA3*
X203200000Y-104140000D03*
G04 #@! TO.P,J2,5*
G04 #@! TO.N,PA2*
X200660000Y-104140000D03*
G04 #@! TO.P,J2,4*
G04 #@! TO.N,PA1*
X198120000Y-104140000D03*
G04 #@! TO.P,J2,3*
G04 #@! TO.N,PA0*
X195580000Y-104140000D03*
G04 #@! TO.P,J2,2*
G04 #@! TO.N,GNDREF*
X193040000Y-104140000D03*
G04 #@! TO.P,J2,1*
G04 #@! TO.N,+BATT*
X190500000Y-104140000D03*
G04 #@! TD*
G04 #@! TO.P,J3,1*
G04 #@! TO.N,+5V*
X190500000Y-121920000D03*
G04 #@! TO.P,J3,2*
G04 #@! TO.N,GNDREF*
X193040000Y-121920000D03*
G04 #@! TO.P,J3,3*
G04 #@! TO.N,PB0*
X195580000Y-121920000D03*
G04 #@! TO.P,J3,4*
G04 #@! TO.N,PB1*
X198120000Y-121920000D03*
G04 #@! TO.P,J3,5*
G04 #@! TO.N,PB3*
X200660000Y-121920000D03*
G04 #@! TO.P,J3,6*
G04 #@! TO.N,PB2*
X203200000Y-121920000D03*
G04 #@! TO.P,J3,7*
G04 #@! TO.N,PA7*
X205740000Y-121920000D03*
G04 #@! TO.P,J3,8*
G04 #@! TO.N,PA6*
X208280000Y-121920000D03*
G04 #@! TD*
D13*
G04 #@! TO.N,+5V*
X185166000Y-118110000D03*
X191579500Y-113890500D03*
X189178000Y-107094000D03*
G04 #@! TO.N,PB3*
X187325000Y-122047000D03*
G04 #@! TO.N,PB1*
X192659000Y-117030500D03*
X198120000Y-118999000D03*
G04 #@! TD*
D14*
G04 #@! TO.N,+5V*
X185565999Y-117710001D02*
X187597999Y-117710001D01*
X185166000Y-118110000D02*
X185565999Y-117710001D01*
X187597999Y-117710001D02*
X191417500Y-113890500D01*
X191417500Y-113890500D02*
X191579500Y-113890500D01*
X191579500Y-113890500D02*
X191579500Y-109495500D01*
X191579500Y-109495500D02*
X189178000Y-107094000D01*
D15*
G04 #@! TO.N,PB3*
X200660000Y-120650000D02*
X200660000Y-121920000D01*
X186944000Y-121666000D02*
X186944000Y-119634000D01*
X187325000Y-122047000D02*
X186944000Y-121666000D01*
X186944000Y-119634000D02*
X197104000Y-119634000D01*
X197104000Y-119634000D02*
X197612000Y-120142000D01*
X197612000Y-120142000D02*
X200152000Y-120142000D01*
X200152000Y-120142000D02*
X200660000Y-120650000D01*
D16*
G04 #@! TO.N,PB1*
X192659000Y-117030500D02*
X196151500Y-117030500D01*
X196151500Y-117030500D02*
X198120000Y-118999000D01*
G04 #@! TD*
D17*
G04 #@! TO.N,GNDREF*
G36*
X197126531Y-120540415D02*
X197161400Y-120592600D01*
X197277074Y-120669890D01*
X196865317Y-121081647D01*
X196850000Y-121118625D01*
X196834683Y-121081647D01*
X196418353Y-120665317D01*
X195874390Y-120440000D01*
X195285610Y-120440000D01*
X194741647Y-120665317D01*
X194325317Y-121081647D01*
X194312023Y-121113742D01*
X194086785Y-121014636D01*
X193181421Y-121920000D01*
X193195564Y-121934143D01*
X193054143Y-122075564D01*
X193040000Y-122061421D01*
X193025858Y-122075564D01*
X192884437Y-121934143D01*
X192898579Y-121920000D01*
X191993215Y-121014636D01*
X191767977Y-121113742D01*
X191754683Y-121081647D01*
X191546251Y-120873215D01*
X192134636Y-120873215D01*
X193040000Y-121778579D01*
X193945364Y-120873215D01*
X193844113Y-120643102D01*
X193294256Y-120432580D01*
X192705691Y-120448503D01*
X192235887Y-120643102D01*
X192134636Y-120873215D01*
X191546251Y-120873215D01*
X191338353Y-120665317D01*
X190794390Y-120440000D01*
X190205610Y-120440000D01*
X189661647Y-120665317D01*
X189245317Y-121081647D01*
X189020000Y-121625610D01*
X189020000Y-122214390D01*
X189175583Y-122590000D01*
X188054792Y-122590000D01*
X188087983Y-122556809D01*
X188225000Y-122226021D01*
X188225000Y-121867979D01*
X188087983Y-121537191D01*
X187834809Y-121284017D01*
X187569000Y-121173915D01*
X187569000Y-120259000D01*
X196845117Y-120259000D01*
X197126531Y-120540415D01*
X197126531Y-120540415D01*
G37*
X197126531Y-120540415D02*
X197161400Y-120592600D01*
X197277074Y-120669890D01*
X196865317Y-121081647D01*
X196850000Y-121118625D01*
X196834683Y-121081647D01*
X196418353Y-120665317D01*
X195874390Y-120440000D01*
X195285610Y-120440000D01*
X194741647Y-120665317D01*
X194325317Y-121081647D01*
X194312023Y-121113742D01*
X194086785Y-121014636D01*
X193181421Y-121920000D01*
X193195564Y-121934143D01*
X193054143Y-122075564D01*
X193040000Y-122061421D01*
X193025858Y-122075564D01*
X192884437Y-121934143D01*
X192898579Y-121920000D01*
X191993215Y-121014636D01*
X191767977Y-121113742D01*
X191754683Y-121081647D01*
X191546251Y-120873215D01*
X192134636Y-120873215D01*
X193040000Y-121778579D01*
X193945364Y-120873215D01*
X193844113Y-120643102D01*
X193294256Y-120432580D01*
X192705691Y-120448503D01*
X192235887Y-120643102D01*
X192134636Y-120873215D01*
X191546251Y-120873215D01*
X191338353Y-120665317D01*
X190794390Y-120440000D01*
X190205610Y-120440000D01*
X189661647Y-120665317D01*
X189245317Y-121081647D01*
X189020000Y-121625610D01*
X189020000Y-122214390D01*
X189175583Y-122590000D01*
X188054792Y-122590000D01*
X188087983Y-122556809D01*
X188225000Y-122226021D01*
X188225000Y-121867979D01*
X188087983Y-121537191D01*
X187834809Y-121284017D01*
X187569000Y-121173915D01*
X187569000Y-120259000D01*
X196845117Y-120259000D01*
X197126531Y-120540415D01*
G36*
X189020000Y-103845610D02*
X189020000Y-104434390D01*
X189245317Y-104978353D01*
X189661647Y-105394683D01*
X190205610Y-105620000D01*
X190794390Y-105620000D01*
X191338353Y-105394683D01*
X191546251Y-105186785D01*
X192134636Y-105186785D01*
X192235887Y-105416898D01*
X192785744Y-105627420D01*
X193374309Y-105611497D01*
X193844113Y-105416898D01*
X193945364Y-105186785D01*
X193040000Y-104281421D01*
X192134636Y-105186785D01*
X191546251Y-105186785D01*
X191754683Y-104978353D01*
X191767977Y-104946258D01*
X191993215Y-105045364D01*
X192898579Y-104140000D01*
X192884437Y-104125858D01*
X193025858Y-103984437D01*
X193040000Y-103998579D01*
X193054143Y-103984437D01*
X193195564Y-104125858D01*
X193181421Y-104140000D01*
X194086785Y-105045364D01*
X194312023Y-104946258D01*
X194325317Y-104978353D01*
X194741647Y-105394683D01*
X195285610Y-105620000D01*
X195874390Y-105620000D01*
X196418353Y-105394683D01*
X196834683Y-104978353D01*
X196850000Y-104941375D01*
X196865317Y-104978353D01*
X197281647Y-105394683D01*
X197825610Y-105620000D01*
X198414390Y-105620000D01*
X198958353Y-105394683D01*
X199374683Y-104978353D01*
X199390000Y-104941375D01*
X199405317Y-104978353D01*
X199821647Y-105394683D01*
X200365610Y-105620000D01*
X200954390Y-105620000D01*
X201498353Y-105394683D01*
X201914683Y-104978353D01*
X201930000Y-104941375D01*
X201945317Y-104978353D01*
X202361647Y-105394683D01*
X202905610Y-105620000D01*
X203494390Y-105620000D01*
X204038353Y-105394683D01*
X204454683Y-104978353D01*
X204470000Y-104941375D01*
X204485317Y-104978353D01*
X204901647Y-105394683D01*
X205445610Y-105620000D01*
X206034390Y-105620000D01*
X206578353Y-105394683D01*
X206994683Y-104978353D01*
X207010000Y-104941375D01*
X207025317Y-104978353D01*
X207441647Y-105394683D01*
X207985610Y-105620000D01*
X208574390Y-105620000D01*
X209118353Y-105394683D01*
X209450000Y-105063036D01*
X209450000Y-120996964D01*
X209118353Y-120665317D01*
X208574390Y-120440000D01*
X207985610Y-120440000D01*
X207441647Y-120665317D01*
X207025317Y-121081647D01*
X207010000Y-121118625D01*
X206994683Y-121081647D01*
X206578353Y-120665317D01*
X206034390Y-120440000D01*
X205445610Y-120440000D01*
X204901647Y-120665317D01*
X204485317Y-121081647D01*
X204470000Y-121118625D01*
X204454683Y-121081647D01*
X204038353Y-120665317D01*
X203494390Y-120440000D01*
X202905610Y-120440000D01*
X202361647Y-120665317D01*
X201945317Y-121081647D01*
X201930000Y-121118625D01*
X201914683Y-121081647D01*
X201498353Y-120665317D01*
X201282507Y-120575910D01*
X201275446Y-120540415D01*
X201248737Y-120406137D01*
X201110600Y-120199400D01*
X201058415Y-120164531D01*
X200637472Y-119743590D01*
X200602600Y-119691400D01*
X200395863Y-119553263D01*
X200213555Y-119517000D01*
X200152000Y-119504756D01*
X200090445Y-119517000D01*
X198874792Y-119517000D01*
X198882983Y-119508809D01*
X199020000Y-119178021D01*
X199020000Y-118819979D01*
X198882983Y-118489191D01*
X198629809Y-118236017D01*
X198299021Y-118099000D01*
X198106712Y-118099000D01*
X196638520Y-116630809D01*
X196603541Y-116578459D01*
X196396143Y-116439880D01*
X196213250Y-116403500D01*
X196213246Y-116403500D01*
X196151500Y-116391218D01*
X196089754Y-116403500D01*
X193304792Y-116403500D01*
X193168809Y-116267517D01*
X192838021Y-116130500D01*
X192479979Y-116130500D01*
X192149191Y-116267517D01*
X191896017Y-116520691D01*
X191759000Y-116851479D01*
X191759000Y-117209521D01*
X191896017Y-117540309D01*
X192149191Y-117793483D01*
X192479979Y-117930500D01*
X192838021Y-117930500D01*
X193168809Y-117793483D01*
X193304792Y-117657500D01*
X195891789Y-117657500D01*
X197220000Y-118985712D01*
X197220000Y-119019830D01*
X197165555Y-119009000D01*
X197104000Y-118996756D01*
X197042445Y-119009000D01*
X187005555Y-119009000D01*
X186944000Y-118996756D01*
X186882445Y-119009000D01*
X186700137Y-119045263D01*
X186493400Y-119183400D01*
X186355263Y-119390137D01*
X186306756Y-119634000D01*
X186319001Y-119695560D01*
X186319000Y-121604445D01*
X186306756Y-121666000D01*
X186319000Y-121727554D01*
X186355263Y-121909862D01*
X186425000Y-122014231D01*
X186425000Y-122226021D01*
X186562017Y-122556809D01*
X186595208Y-122590000D01*
X181075000Y-122590000D01*
X181075000Y-117930979D01*
X184266000Y-117930979D01*
X184266000Y-118289021D01*
X184403017Y-118619809D01*
X184656191Y-118872983D01*
X184986979Y-119010000D01*
X185345021Y-119010000D01*
X185675809Y-118872983D01*
X185928983Y-118619809D01*
X186019823Y-118400501D01*
X187529999Y-118400501D01*
X187597999Y-118414027D01*
X187665999Y-118400501D01*
X187666004Y-118400501D01*
X187867418Y-118360437D01*
X188095821Y-118207823D01*
X188134343Y-118150171D01*
X191494014Y-114790500D01*
X191758521Y-114790500D01*
X192089309Y-114653483D01*
X192342483Y-114400309D01*
X192479500Y-114069521D01*
X192479500Y-113711479D01*
X192342483Y-113380691D01*
X192270000Y-113308208D01*
X192270000Y-109563500D01*
X192283526Y-109495500D01*
X192270000Y-109427500D01*
X192270000Y-109427495D01*
X192229936Y-109226081D01*
X192197482Y-109177510D01*
X192115844Y-109055329D01*
X192115841Y-109055326D01*
X192077322Y-108997678D01*
X192019673Y-108959158D01*
X190078000Y-107017486D01*
X190078000Y-106914979D01*
X189940983Y-106584191D01*
X189687809Y-106331017D01*
X189357021Y-106194000D01*
X188998979Y-106194000D01*
X188668191Y-106331017D01*
X188415017Y-106584191D01*
X188278000Y-106914979D01*
X188278000Y-107273021D01*
X188415017Y-107603809D01*
X188668191Y-107856983D01*
X188998979Y-107994000D01*
X189101486Y-107994000D01*
X190889001Y-109781516D01*
X190889000Y-113308208D01*
X190816517Y-113380691D01*
X190721568Y-113609918D01*
X187311985Y-117019501D01*
X185633998Y-117019501D01*
X185565998Y-117005975D01*
X185497998Y-117019501D01*
X185497994Y-117019501D01*
X185296580Y-117059565D01*
X185071438Y-117210000D01*
X184986979Y-117210000D01*
X184656191Y-117347017D01*
X184403017Y-117600191D01*
X184266000Y-117930979D01*
X181075000Y-117930979D01*
X181075000Y-117557834D01*
X181319500Y-117630000D01*
X181669500Y-117630000D01*
X181669500Y-116630000D01*
X181869500Y-116630000D01*
X181869500Y-117630000D01*
X182219500Y-117630000D01*
X182632840Y-117507999D01*
X182968028Y-117237107D01*
X183174036Y-116858564D01*
X183185815Y-116800134D01*
X183089358Y-116630000D01*
X181869500Y-116630000D01*
X181669500Y-116630000D01*
X181649500Y-116630000D01*
X181649500Y-116430000D01*
X181669500Y-116430000D01*
X181669500Y-115430000D01*
X181869500Y-115430000D01*
X181869500Y-116430000D01*
X183089358Y-116430000D01*
X183110705Y-116392346D01*
X183748575Y-116392346D01*
X183818615Y-116595996D01*
X184276100Y-116763935D01*
X184763028Y-116744018D01*
X185120385Y-116595996D01*
X185190425Y-116392346D01*
X184469500Y-115671421D01*
X183748575Y-116392346D01*
X183110705Y-116392346D01*
X183185815Y-116259866D01*
X183174036Y-116201436D01*
X182968028Y-115822893D01*
X182632840Y-115552001D01*
X182219500Y-115430000D01*
X181869500Y-115430000D01*
X181669500Y-115430000D01*
X181319500Y-115430000D01*
X181075000Y-115502166D01*
X181075000Y-115336600D01*
X183235565Y-115336600D01*
X183255482Y-115823528D01*
X183403504Y-116180885D01*
X183607154Y-116250925D01*
X184328079Y-115530000D01*
X184610921Y-115530000D01*
X185331846Y-116250925D01*
X185535496Y-116180885D01*
X185703435Y-115723400D01*
X185683518Y-115236472D01*
X185535496Y-114879115D01*
X185331846Y-114809075D01*
X184610921Y-115530000D01*
X184328079Y-115530000D01*
X183607154Y-114809075D01*
X183403504Y-114879115D01*
X183235565Y-115336600D01*
X181075000Y-115336600D01*
X181075000Y-114667654D01*
X183748575Y-114667654D01*
X184469500Y-115388579D01*
X185190425Y-114667654D01*
X185120385Y-114464004D01*
X184662900Y-114296065D01*
X184175972Y-114315982D01*
X183818615Y-114464004D01*
X183748575Y-114667654D01*
X181075000Y-114667654D01*
X181075000Y-111392346D01*
X183748575Y-111392346D01*
X183818615Y-111595996D01*
X184276100Y-111763935D01*
X184763028Y-111744018D01*
X185120385Y-111595996D01*
X185190425Y-111392346D01*
X184469500Y-110671421D01*
X183748575Y-111392346D01*
X181075000Y-111392346D01*
X181075000Y-110557834D01*
X181319500Y-110630000D01*
X181669500Y-110630000D01*
X181669500Y-109630000D01*
X181869500Y-109630000D01*
X181869500Y-110630000D01*
X182219500Y-110630000D01*
X182632840Y-110507999D01*
X182844920Y-110336600D01*
X183235565Y-110336600D01*
X183255482Y-110823528D01*
X183403504Y-111180885D01*
X183607154Y-111250925D01*
X184328079Y-110530000D01*
X184610921Y-110530000D01*
X185331846Y-111250925D01*
X185535496Y-111180885D01*
X185703435Y-110723400D01*
X185683518Y-110236472D01*
X185535496Y-109879115D01*
X185331846Y-109809075D01*
X184610921Y-110530000D01*
X184328079Y-110530000D01*
X183607154Y-109809075D01*
X183403504Y-109879115D01*
X183235565Y-110336600D01*
X182844920Y-110336600D01*
X182968028Y-110237107D01*
X183174036Y-109858564D01*
X183185815Y-109800134D01*
X183110706Y-109667654D01*
X183748575Y-109667654D01*
X184469500Y-110388579D01*
X185190425Y-109667654D01*
X185120385Y-109464004D01*
X184662900Y-109296065D01*
X184175972Y-109315982D01*
X183818615Y-109464004D01*
X183748575Y-109667654D01*
X183110706Y-109667654D01*
X183089358Y-109630000D01*
X181869500Y-109630000D01*
X181669500Y-109630000D01*
X181649500Y-109630000D01*
X181649500Y-109430000D01*
X181669500Y-109430000D01*
X181669500Y-108430000D01*
X181869500Y-108430000D01*
X181869500Y-109430000D01*
X183089358Y-109430000D01*
X183185815Y-109259866D01*
X183174036Y-109201436D01*
X182968028Y-108822893D01*
X182632840Y-108552001D01*
X182219500Y-108430000D01*
X181869500Y-108430000D01*
X181669500Y-108430000D01*
X181319500Y-108430000D01*
X181075000Y-108502166D01*
X181075000Y-103470000D01*
X189175583Y-103470000D01*
X189020000Y-103845610D01*
X189020000Y-103845610D01*
G37*
X189020000Y-103845610D02*
X189020000Y-104434390D01*
X189245317Y-104978353D01*
X189661647Y-105394683D01*
X190205610Y-105620000D01*
X190794390Y-105620000D01*
X191338353Y-105394683D01*
X191546251Y-105186785D01*
X192134636Y-105186785D01*
X192235887Y-105416898D01*
X192785744Y-105627420D01*
X193374309Y-105611497D01*
X193844113Y-105416898D01*
X193945364Y-105186785D01*
X193040000Y-104281421D01*
X192134636Y-105186785D01*
X191546251Y-105186785D01*
X191754683Y-104978353D01*
X191767977Y-104946258D01*
X191993215Y-105045364D01*
X192898579Y-104140000D01*
X192884437Y-104125858D01*
X193025858Y-103984437D01*
X193040000Y-103998579D01*
X193054143Y-103984437D01*
X193195564Y-104125858D01*
X193181421Y-104140000D01*
X194086785Y-105045364D01*
X194312023Y-104946258D01*
X194325317Y-104978353D01*
X194741647Y-105394683D01*
X195285610Y-105620000D01*
X195874390Y-105620000D01*
X196418353Y-105394683D01*
X196834683Y-104978353D01*
X196850000Y-104941375D01*
X196865317Y-104978353D01*
X197281647Y-105394683D01*
X197825610Y-105620000D01*
X198414390Y-105620000D01*
X198958353Y-105394683D01*
X199374683Y-104978353D01*
X199390000Y-104941375D01*
X199405317Y-104978353D01*
X199821647Y-105394683D01*
X200365610Y-105620000D01*
X200954390Y-105620000D01*
X201498353Y-105394683D01*
X201914683Y-104978353D01*
X201930000Y-104941375D01*
X201945317Y-104978353D01*
X202361647Y-105394683D01*
X202905610Y-105620000D01*
X203494390Y-105620000D01*
X204038353Y-105394683D01*
X204454683Y-104978353D01*
X204470000Y-104941375D01*
X204485317Y-104978353D01*
X204901647Y-105394683D01*
X205445610Y-105620000D01*
X206034390Y-105620000D01*
X206578353Y-105394683D01*
X206994683Y-104978353D01*
X207010000Y-104941375D01*
X207025317Y-104978353D01*
X207441647Y-105394683D01*
X207985610Y-105620000D01*
X208574390Y-105620000D01*
X209118353Y-105394683D01*
X209450000Y-105063036D01*
X209450000Y-120996964D01*
X209118353Y-120665317D01*
X208574390Y-120440000D01*
X207985610Y-120440000D01*
X207441647Y-120665317D01*
X207025317Y-121081647D01*
X207010000Y-121118625D01*
X206994683Y-121081647D01*
X206578353Y-120665317D01*
X206034390Y-120440000D01*
X205445610Y-120440000D01*
X204901647Y-120665317D01*
X204485317Y-121081647D01*
X204470000Y-121118625D01*
X204454683Y-121081647D01*
X204038353Y-120665317D01*
X203494390Y-120440000D01*
X202905610Y-120440000D01*
X202361647Y-120665317D01*
X201945317Y-121081647D01*
X201930000Y-121118625D01*
X201914683Y-121081647D01*
X201498353Y-120665317D01*
X201282507Y-120575910D01*
X201275446Y-120540415D01*
X201248737Y-120406137D01*
X201110600Y-120199400D01*
X201058415Y-120164531D01*
X200637472Y-119743590D01*
X200602600Y-119691400D01*
X200395863Y-119553263D01*
X200213555Y-119517000D01*
X200152000Y-119504756D01*
X200090445Y-119517000D01*
X198874792Y-119517000D01*
X198882983Y-119508809D01*
X199020000Y-119178021D01*
X199020000Y-118819979D01*
X198882983Y-118489191D01*
X198629809Y-118236017D01*
X198299021Y-118099000D01*
X198106712Y-118099000D01*
X196638520Y-116630809D01*
X196603541Y-116578459D01*
X196396143Y-116439880D01*
X196213250Y-116403500D01*
X196213246Y-116403500D01*
X196151500Y-116391218D01*
X196089754Y-116403500D01*
X193304792Y-116403500D01*
X193168809Y-116267517D01*
X192838021Y-116130500D01*
X192479979Y-116130500D01*
X192149191Y-116267517D01*
X191896017Y-116520691D01*
X191759000Y-116851479D01*
X191759000Y-117209521D01*
X191896017Y-117540309D01*
X192149191Y-117793483D01*
X192479979Y-117930500D01*
X192838021Y-117930500D01*
X193168809Y-117793483D01*
X193304792Y-117657500D01*
X195891789Y-117657500D01*
X197220000Y-118985712D01*
X197220000Y-119019830D01*
X197165555Y-119009000D01*
X197104000Y-118996756D01*
X197042445Y-119009000D01*
X187005555Y-119009000D01*
X186944000Y-118996756D01*
X186882445Y-119009000D01*
X186700137Y-119045263D01*
X186493400Y-119183400D01*
X186355263Y-119390137D01*
X186306756Y-119634000D01*
X186319001Y-119695560D01*
X186319000Y-121604445D01*
X186306756Y-121666000D01*
X186319000Y-121727554D01*
X186355263Y-121909862D01*
X186425000Y-122014231D01*
X186425000Y-122226021D01*
X186562017Y-122556809D01*
X186595208Y-122590000D01*
X181075000Y-122590000D01*
X181075000Y-117930979D01*
X184266000Y-117930979D01*
X184266000Y-118289021D01*
X184403017Y-118619809D01*
X184656191Y-118872983D01*
X184986979Y-119010000D01*
X185345021Y-119010000D01*
X185675809Y-118872983D01*
X185928983Y-118619809D01*
X186019823Y-118400501D01*
X187529999Y-118400501D01*
X187597999Y-118414027D01*
X187665999Y-118400501D01*
X187666004Y-118400501D01*
X187867418Y-118360437D01*
X188095821Y-118207823D01*
X188134343Y-118150171D01*
X191494014Y-114790500D01*
X191758521Y-114790500D01*
X192089309Y-114653483D01*
X192342483Y-114400309D01*
X192479500Y-114069521D01*
X192479500Y-113711479D01*
X192342483Y-113380691D01*
X192270000Y-113308208D01*
X192270000Y-109563500D01*
X192283526Y-109495500D01*
X192270000Y-109427500D01*
X192270000Y-109427495D01*
X192229936Y-109226081D01*
X192197482Y-109177510D01*
X192115844Y-109055329D01*
X192115841Y-109055326D01*
X192077322Y-108997678D01*
X192019673Y-108959158D01*
X190078000Y-107017486D01*
X190078000Y-106914979D01*
X189940983Y-106584191D01*
X189687809Y-106331017D01*
X189357021Y-106194000D01*
X188998979Y-106194000D01*
X188668191Y-106331017D01*
X188415017Y-106584191D01*
X188278000Y-106914979D01*
X188278000Y-107273021D01*
X188415017Y-107603809D01*
X188668191Y-107856983D01*
X188998979Y-107994000D01*
X189101486Y-107994000D01*
X190889001Y-109781516D01*
X190889000Y-113308208D01*
X190816517Y-113380691D01*
X190721568Y-113609918D01*
X187311985Y-117019501D01*
X185633998Y-117019501D01*
X185565998Y-117005975D01*
X185497998Y-117019501D01*
X185497994Y-117019501D01*
X185296580Y-117059565D01*
X185071438Y-117210000D01*
X184986979Y-117210000D01*
X184656191Y-117347017D01*
X184403017Y-117600191D01*
X184266000Y-117930979D01*
X181075000Y-117930979D01*
X181075000Y-117557834D01*
X181319500Y-117630000D01*
X181669500Y-117630000D01*
X181669500Y-116630000D01*
X181869500Y-116630000D01*
X181869500Y-117630000D01*
X182219500Y-117630000D01*
X182632840Y-117507999D01*
X182968028Y-117237107D01*
X183174036Y-116858564D01*
X183185815Y-116800134D01*
X183089358Y-116630000D01*
X181869500Y-116630000D01*
X181669500Y-116630000D01*
X181649500Y-116630000D01*
X181649500Y-116430000D01*
X181669500Y-116430000D01*
X181669500Y-115430000D01*
X181869500Y-115430000D01*
X181869500Y-116430000D01*
X183089358Y-116430000D01*
X183110705Y-116392346D01*
X183748575Y-116392346D01*
X183818615Y-116595996D01*
X184276100Y-116763935D01*
X184763028Y-116744018D01*
X185120385Y-116595996D01*
X185190425Y-116392346D01*
X184469500Y-115671421D01*
X183748575Y-116392346D01*
X183110705Y-116392346D01*
X183185815Y-116259866D01*
X183174036Y-116201436D01*
X182968028Y-115822893D01*
X182632840Y-115552001D01*
X182219500Y-115430000D01*
X181869500Y-115430000D01*
X181669500Y-115430000D01*
X181319500Y-115430000D01*
X181075000Y-115502166D01*
X181075000Y-115336600D01*
X183235565Y-115336600D01*
X183255482Y-115823528D01*
X183403504Y-116180885D01*
X183607154Y-116250925D01*
X184328079Y-115530000D01*
X184610921Y-115530000D01*
X185331846Y-116250925D01*
X185535496Y-116180885D01*
X185703435Y-115723400D01*
X185683518Y-115236472D01*
X185535496Y-114879115D01*
X185331846Y-114809075D01*
X184610921Y-115530000D01*
X184328079Y-115530000D01*
X183607154Y-114809075D01*
X183403504Y-114879115D01*
X183235565Y-115336600D01*
X181075000Y-115336600D01*
X181075000Y-114667654D01*
X183748575Y-114667654D01*
X184469500Y-115388579D01*
X185190425Y-114667654D01*
X185120385Y-114464004D01*
X184662900Y-114296065D01*
X184175972Y-114315982D01*
X183818615Y-114464004D01*
X183748575Y-114667654D01*
X181075000Y-114667654D01*
X181075000Y-111392346D01*
X183748575Y-111392346D01*
X183818615Y-111595996D01*
X184276100Y-111763935D01*
X184763028Y-111744018D01*
X185120385Y-111595996D01*
X185190425Y-111392346D01*
X184469500Y-110671421D01*
X183748575Y-111392346D01*
X181075000Y-111392346D01*
X181075000Y-110557834D01*
X181319500Y-110630000D01*
X181669500Y-110630000D01*
X181669500Y-109630000D01*
X181869500Y-109630000D01*
X181869500Y-110630000D01*
X182219500Y-110630000D01*
X182632840Y-110507999D01*
X182844920Y-110336600D01*
X183235565Y-110336600D01*
X183255482Y-110823528D01*
X183403504Y-111180885D01*
X183607154Y-111250925D01*
X184328079Y-110530000D01*
X184610921Y-110530000D01*
X185331846Y-111250925D01*
X185535496Y-111180885D01*
X185703435Y-110723400D01*
X185683518Y-110236472D01*
X185535496Y-109879115D01*
X185331846Y-109809075D01*
X184610921Y-110530000D01*
X184328079Y-110530000D01*
X183607154Y-109809075D01*
X183403504Y-109879115D01*
X183235565Y-110336600D01*
X182844920Y-110336600D01*
X182968028Y-110237107D01*
X183174036Y-109858564D01*
X183185815Y-109800134D01*
X183110706Y-109667654D01*
X183748575Y-109667654D01*
X184469500Y-110388579D01*
X185190425Y-109667654D01*
X185120385Y-109464004D01*
X184662900Y-109296065D01*
X184175972Y-109315982D01*
X183818615Y-109464004D01*
X183748575Y-109667654D01*
X183110706Y-109667654D01*
X183089358Y-109630000D01*
X181869500Y-109630000D01*
X181669500Y-109630000D01*
X181649500Y-109630000D01*
X181649500Y-109430000D01*
X181669500Y-109430000D01*
X181669500Y-108430000D01*
X181869500Y-108430000D01*
X181869500Y-109430000D01*
X183089358Y-109430000D01*
X183185815Y-109259866D01*
X183174036Y-109201436D01*
X182968028Y-108822893D01*
X182632840Y-108552001D01*
X182219500Y-108430000D01*
X181869500Y-108430000D01*
X181669500Y-108430000D01*
X181319500Y-108430000D01*
X181075000Y-108502166D01*
X181075000Y-103470000D01*
X189175583Y-103470000D01*
X189020000Y-103845610D01*
G04 #@! TD*
M02*
